<?xml version="1.0" standalone="no"?>
<!DOCTYPE svg PUBLIC "-//W3C//DTD SVG 20010904//EN"
 "http://www.w3.org/TR/2001/REC-SVG-20010904/DTD/svg10.dtd">
<svg version="1.0" xmlns="http://www.w3.org/2000/svg"
 width="716pt" height="244pt" viewBox="0 0 716 244"
 preserveAspectRatio="xMidYMid meet">

<g transform="translate(0,244) scale(0.1,-0.1)"
fill="#000000" stroke="none">
<path d="M3520 2424 c-446 -56 -750 -262 -900 -612 -133 -308 -144 -783 -28
-1119 163 -467 583 -710 1198 -690 91 3 203 13 249 22 517 101 803 421 828
927 l6 108 -40 40 -41 40 -351 0 c-381 0 -390 -1 -425 -55 -9 -14 -21 -61 -26
-105 -10 -91 -25 -125 -74 -168 -44 -38 -118 -56 -218 -51 -61 4 -82 9 -116
32 -100 65 -126 155 -126 427 0 223 13 295 67 367 47 63 103 87 202 86 91 0
118 -9 169 -54 47 -41 65 -84 76 -182 10 -86 32 -127 78 -146 20 -8 131 -11
391 -9 l363 3 35 39 36 39 -6 116 c-22 422 -258 743 -643 876 -167 57 -228 66
-459 70 -115 2 -226 1 -245 -1z"/>
<path d="M851 2382 c-19 -9 -43 -28 -52 -42 -30 -42 -793 -2141 -793 -2182 -1
-41 27 -86 65 -105 18 -10 123 -13 405 -13 381 0 381 0 415 23 35 24 46 48 90
194 l21 73 278 0 278 0 21 -72 c44 -147 55 -171 90 -195 l34 -23 394 0 c348 0
398 2 423 16 35 21 60 64 60 102 0 37 -772 2156 -798 2192 -35 46 -60 49 -492
49 -367 1 -408 -1 -439 -17z m458 -1212 c12 -45 24 -87 28 -95 4 -12 -7 -15
-57 -15 -45 0 -60 3 -57 13 3 6 15 49 28 95 13 45 26 82 30 82 3 0 16 -36 28
-80z"/>
<path d="M5133 2385 c-18 -8 -42 -29 -53 -47 -20 -33 -20 -48 -20 -1121 0
-953 2 -1092 15 -1117 33 -63 -20 -60 1030 -60 1050 0 997 -3 1030 60 22 43
22 587 0 630 -29 56 -17 55 -605 60 l-545 5 -3 32 -3 32 450 3 c437 3 450 4
478 24 59 43 63 63 63 347 0 287 -4 312 -62 347 -32 19 -49 20 -480 20 -441 0
-448 0 -448 20 0 20 7 20 529 20 l528 0 34 23 c58 39 59 45 59 357 0 268 -1
287 -20 318 -40 65 5 62 -1017 62 -774 -1 -933 -3 -960 -15z"/>
</g>
<g transform="translate(13,244) scale(0.1,-0.1)"
fill="#FFFFFF" stroke="none">
<path d="M3420 2304 c-292 -37 -487 -121 -642 -276 -202 -202 -296 -532 -267
-938 15 -215 61 -383 146 -530 48 -84 198 -234 283 -283 199 -115 481 -168
783 -147 314 22 516 105 679 278 132 140 189 287 213 545 l7 67 -316 0 c-174
0 -316 -3 -316 -6 0 -3 -5 -38 -11 -77 -27 -177 -130 -273 -318 -298 -140 -19
-256 14 -336 96 -87 91 -115 188 -122 426 -10 334 32 478 168 575 139 101 392
79 499 -42 42 -49 77 -125 85 -189 3 -27 9 -62 11 -78 l6 -27 321 2 322 3 -3
75 c-10 236 -95 427 -259 580 -122 114 -287 192 -488 230 -62 12 -383 22 -445
14z"/>
<path d="M383 1222 c-211 -576 -383 -1051 -383 -1055 0 -4 156 -6 347 -5 l346
3 45 147 45 148 367 0 367 0 44 -148 45 -147 361 -3 362 -2 -13 37 c-26 71
-744 2038 -751 2056 -7 16 -35 17 -404 17 l-396 0 -382 -1048z m880 94 c59
-200 107 -369 107 -375 0 -8 -64 -11 -220 -11 -167 0 -220 3 -220 12 0 21 215
738 221 738 3 0 54 -164 112 -364z"/>
<path d="M5050 1215 l0 -1055 925 0 925 0 0 255 0 255 -585 0 -585 0 0 160 0
160 490 0 490 0 0 245 0 245 -490 0 -490 0 0 145 0 145 575 0 575 0 0 250 0
250 -915 0 -915 0 0 -1055z"/>
</g>
</svg>
