<?xml version="1.0" standalone="no"?>
<!DOCTYPE svg PUBLIC "-//W3C//DTD SVG 20010904//EN"
 "http://www.w3.org/TR/2001/REC-SVG-20010904/DTD/svg10.dtd">
<svg version="1.0" xmlns="http://www.w3.org/2000/svg"
 width="965pt" height="463pt" viewBox="16 190 965 463"
 preserveAspectRatio="xMidYMid meet">

<!-- Bottom, brown sides of desk: -->

<g transform="translate(0,652) scale(0.1,-0.1)"
fill="#754E38" stroke="none">
<path d="M220 1645 l0 -1645 2110 0 2110 0 -2 341 -3 342 -2090 1294 c-1149
711 -2098 1298 -2107 1304 -17 9 -18 -71 -18 -1636z"/>
<path d="M7205 1315 c-1380 -331 -2544 -608 -2585 -615 -57 -11 -81 -20 -102
-41 l-28 -27 0 -316 0 -316 2630 0 2630 0 0 960 c0 908 -1 960 -17 959 -10 -1
-1147 -272 -2528 -604z"/>
</g>

<!-- Top, light brown side of desk: -->

<g transform="translate(0,652) scale(0.1,-0.1)"
fill="#87604A" stroke="none">
<path d="M2858 3947 c-1422 -342 -2589 -624 -2591 -627 -6 -6 4209 -2616 4221
-2615 50 8 5212 1250 5212 1254 -2 12 -4207 2604 -4236 2616 -14 2 -1189 -277
-2612 -619z"/>
</g>

<!-- Dark brown table Outline: -->

<g transform="translate(0,652) scale(0.1,-0.1)"
fill="#5E3721" stroke="none">
<path d="M5452 4613 c-8 -3 -1199 -289 -2647 -637 -1448 -347 -2634 -634
-2634 -638 -1 -5 -1 -757 -1 -1673 l0 -1665 30 0 30 0 0 1636 c0 900 4 1634 8
1632 5 -1 950 -586 2100 -1298 l2092 -1294 0 -338 0 -338 35 0 35 0 0 313 c0
310 0 312 23 338 21 25 75 43 168 54 17 3 1157 274 2534 605 1378 330 2509
600 2515 600 7 0 10 -303 10 -955 l0 -955 25 0 25 0 -2 977 -3 976 -1985 1229
c-1092 675 -2059 1274 -2150 1331 -165 102 -183 111 -208 100z m2135 -1348
c1156 -715 2098 -1303 2095 -1306 -4 -3 -1176 -286 -2604 -628 l-2596 -622
-2106 1302 c-1158 717 -2103 1305 -2101 1307 6 6 5189 1250 5201 1249 6 -1
956 -587 2111 -1302z"/>
</g>

</svg>