<svg xmlns="http://www.w3.org/2000/svg" xmlns:xlink="http://www.w3.org/1999/xlink" width="400" 
height="321.9814241486068" viewBox="0, 0, 400,321.9814241486068"><g><path d="M206.192 
14.788 C 195.519 17.410,174.823 32.129,162.645 45.759 L 158.917 49.932 152.881 45.779 C 149.562 43.495,144.874 
39.854,142.463 37.688 C 130.957 27.346,126.052 25.639,118.376 29.299 C 114.277 31.254,112.954 33.217,107.236 
45.820 C 106.140 48.237,103.609 49.637,95.694 52.201 C 33.265 72.426,3.541 108.772,11.101 155.639 C 13.581 
171.013,13.836 171.312,23.472 170.178 C 34.002 168.938,39.653 169.282,56.745 172.204 C 91.610 178.165,111.944 
175.148,136.842 160.321 C 163.037 144.722,179.610 142.074,192.421 151.441 C 198.495 155.882,172.292 
190.919,145.994 213.520 C 102.998 250.471,65.974 267.444,57.672 254.010 C 57.203 253.252,55.379 252.632,53.619 
252.632 L 50.418 252.632 51.198 261.016 C 55.686 309.309,87.281 313.706,146.130 274.226 C 163.551 262.539,169.726 
260.730,185.656 262.645 C 214.796 266.148,234.601 272.723,269.513 290.481 C 305.972 309.027,318.840 
313.313,338.069 313.313 C 349.620 313.313,376.990 281.355,386.857 256.347 C 399.179 225.116,398.537 
184.079,385.166 148.345 L 382.612 141.516 375.408 140.863 C 362.291 139.673,353.792 133.520,330.673 108.476 C 
305.398 81.097,285.178 64.037,264.037 52.257 C 255.835 47.687,252.256 44.705,246.235 37.426 C 230.133 
17.959,218.971 11.649,206.192 14.788 " stroke="none" fill="#90E4A3" fill-rule="evenodd"></path></g>

<g><path d="M194.679 67.437 C 179.514 74.280,175.510 
82.056,184.130 87.926 C 196.342 96.242,217.929 88.684,217.952 76.083 C 217.966 68.563,203.825 63.310,194.679 
67.437 " stroke="none" fill="#FFFFFF" fill-rule="evenodd"></path></g>

<g><path d="M201.238 
9.543 C 192.931 12.872,179.981 22.054,169.194 32.265 L 158.944 41.968 154.704 39.393 C 152.372 37.976,147.707 
34.340,144.337 31.312 C 126.127 14.950,110.299 19.985,105.879 43.545 C 105.078 47.816,104.830 47.975,93.707 
51.363 C 40.395 67.604,4.879 106.328,7.926 144.892 C 10.341 175.449,20.461 181.845,58.936 177.127 C 64.323 
176.467,77.973 175.755,89.269 175.546 L 109.807 175.166 107.580 178.914 C 102.803 186.955,75.800 217.934,52.158 
242.498 C 47.410 247.431,47.212 256.310,51.481 272.785 C 61.934 313.125,89.221 313.076,151.010 272.608 L 166.416 
262.518 174.539 263.258 C 209.732 266.463,235.625 274.045,266.254 290.115 C 301.832 308.782,312.787 
313.089,327.521 314.204 C 340.377 315.176,343.559 311.562,330.989 310.265 C 314.992 308.615,307.059 
305.763,279.876 291.883 C 239.227 271.129,221.923 265.073,190.712 260.680 C 182.879 259.577,175.913 
258.518,175.232 258.325 C 171.077 257.153,193.598 248.765,220.433 241.490 C 255.507 231.981,268.432 
224.146,276.614 207.438 C 282.883 194.634,283.681 171.882,278.024 167.187 C 276.156 165.637,276.384 
164.751,273.799 183.577 C 270.197 209.813,257.986 221.146,222.910 230.810 C 195.819 238.274,182.518 
244.864,153.524 265.187 C 89.302 310.202,60.087 309.045,53.745 261.236 L 52.911 254.952 57.540 258.094 C 66.993 
264.509,75.505 263.584,92.879 254.256 C 136.639 230.761,176.603 194.378,193.101 163.016 C 200.541 
148.872,195.548 144.272,172.755 144.272 C 158.429 144.272,153.622 146.077,131.134 159.896 C 111.026 
172.253,91.235 174.926,58.824 169.664 C 43.473 167.172,32.361 166.546,20.505 167.507 C 10.502 168.317,9.602 
129.147,19.189 110.228 C 29.585 89.713,63.404 65.859,97.808 54.776 C 106.034 52.126,108.620 50.723,109.746 
48.297 C 110.537 46.594,112.333 42.593,113.738 39.404 C 119.023 27.414,125.139 27.466,139.319 39.619 C 143.406 
43.121,148.287 46.909,150.167 48.035 C 152.046 49.162,153.428 50.378,153.236 50.738 C 142.844 70.296,144.395 
72.344,157.734 56.680 C 180.659 29.758,205.435 13.409,217.351 17.342 C 223.436 19.350,234.780 29.008,243.490 
39.595 C 249.328 46.692,253.010 49.694,263.109 55.591 C 285.874 68.883,299.868 81.012,336.853 119.505 C 354.383 
137.749,361.234 142.314,371.744 142.757 C 380.920 143.143,381.205 139.670,372.088 138.557 C 361.804 
137.302,358.382 134.674,331.269 107.206 C 299.455 74.977,273.972 53.251,267.981 53.251 C 267.031 
53.251,266.254 52.693,266.254 52.012 C 266.254 51.331,265.502 50.774,264.582 50.774 C 260.929 50.774,252.363 
42.880,245.705 33.379 C 228.901 9.398,217.223 3.138,201.238 9.543 M194.700 66.791 C 189.297 69.310,175.851 
79.192,175.851 80.645 C 175.851 88.469,196.505 94.972,206.686 90.353 C 213.712 87.165,212.726 86.329,204.007 
88.080 C 195.237 89.841,189.844 88.830,184.584 84.439 L 180.429 80.970 185.880 76.552 C 198.555 66.282,205.460 
65.440,213.033 73.243 C 218.331 78.703,220.731 78.868,217.900 73.578 C 213.625 65.591,203.578 62.652,194.700 
66.791 M65.627 90.321 C 51.759 94.539,39.446 111.742,48.286 114.548 C 51.562 115.587,52.834 114.650,55.658 
109.115 C 58.021 104.482,65.127 97.887,72.754 93.249 C 78.731 89.615,74.144 87.730,65.627 90.321 " stroke="none" 
fill="#43724D" fill-rule="evenodd"></path></g>
</svg>