<svg id="svg" version="1.1" xmlns="http://www.w3.org/2000/svg" xmlns:xlink="http://www.w3.org/1999/xlink" width="400" height="226.71905697445973" viewBox="0, 0, 400,226.71905697445973"><g id="svgg"><path id="path0" d="M298.923 0.166 C 298.019 0.210,297.279 0.333,297.279 0.439 C 297.279 0.545,296.258 0.704,295.010 0.794 C 293.761 0.883,292.684 1.047,292.615 1.158 C 292.546 1.270,292.247 1.361,291.950 1.361 C 291.653 1.361,291.347 1.463,291.270 1.587 C 291.193 1.712,290.830 1.814,290.463 1.814 C 290.096 1.814,289.796 1.916,289.796 2.041 C 289.796 2.166,289.515 2.267,289.172 2.266 C 288.478 2.265,286.324 2.966,286.206 3.231 C 286.164 3.325,285.903 3.401,285.625 3.401 C 285.348 3.401,284.923 3.551,284.681 3.734 C 284.438 3.917,284.011 4.070,283.730 4.074 C 283.450 4.078,283.220 4.184,283.220 4.308 C 283.220 4.433,283.016 4.535,282.766 4.535 C 282.517 4.535,282.313 4.612,282.312 4.705 C 282.312 4.799,281.852 5.064,281.292 5.295 C 280.731 5.525,280.272 5.806,280.272 5.918 C 280.272 6.031,280.119 6.122,279.932 6.122 C 279.745 6.122,279.592 6.224,279.592 6.349 C 279.592 6.474,279.385 6.576,279.131 6.576 C 278.878 6.576,278.612 6.729,278.540 6.916 C 278.468 7.103,278.223 7.256,277.996 7.256 C 277.768 7.256,277.521 7.448,277.446 7.683 C 277.371 7.919,277.019 8.168,276.656 8.240 C 276.269 8.318,275.940 8.561,275.853 8.834 C 275.773 9.089,275.558 9.297,275.376 9.297 C 274.802 9.297,268.254 16.118,268.254 16.715 C 268.254 16.820,268.050 17.054,267.800 17.234 C 267.551 17.413,267.347 17.742,267.347 17.964 C 267.347 18.186,267.247 18.367,267.125 18.367 C 267.002 18.367,266.838 18.622,266.760 18.934 C 266.682 19.246,266.527 19.501,266.415 19.501 C 266.304 19.501,266.213 19.610,266.213 19.744 C 266.213 19.878,266.060 20.140,265.873 20.327 C 265.686 20.514,265.533 20.864,265.533 21.105 C 265.533 21.345,265.431 21.542,265.306 21.542 C 265.167 21.542,265.079 20.422,265.079 18.635 C 265.079 15.915,265.047 15.697,264.569 15.245 C 264.289 14.979,263.943 14.643,263.801 14.498 C 263.659 14.354,263.287 13.980,262.976 13.668 C 262.664 13.357,262.307 12.999,262.182 12.875 C 262.057 12.750,261.714 12.409,261.420 12.117 C 261.125 11.825,260.760 11.454,260.607 11.292 C 260.455 11.130,260.214 10.882,260.072 10.740 C 259.930 10.598,259.575 10.240,259.283 9.946 C 258.991 9.651,258.620 9.286,258.458 9.133 C 258.296 8.981,258.033 8.726,257.874 8.566 C 257.714 8.407,257.357 8.052,257.080 7.777 C 256.181 6.886,256.009 6.605,256.009 6.018 C 256.009 5.525,255.859 5.400,254.989 5.168 C 254.427 5.017,253.968 4.814,253.968 4.715 C 253.968 4.616,253.713 4.535,253.401 4.535 C 253.090 4.535,252.834 4.433,252.834 4.308 C 252.834 4.184,252.585 4.082,252.281 4.082 C 251.977 4.082,251.666 3.983,251.591 3.861 C 251.517 3.740,250.949 3.574,250.331 3.492 C 249.712 3.410,249.206 3.254,249.206 3.145 C 249.206 3.037,248.804 2.948,248.313 2.948 C 247.821 2.948,247.356 2.846,247.279 2.721 C 247.096 2.425,243.380 2.425,243.197 2.721 C 243.120 2.846,242.604 2.948,242.050 2.948 C 241.496 2.948,241.043 3.050,241.043 3.175 C 241.043 3.299,240.865 3.401,240.646 3.400 C 240.126 3.399,238.004 4.146,237.906 4.365 C 237.865 4.459,237.686 4.535,237.509 4.535 C 237.333 4.535,237.188 4.630,237.188 4.747 C 237.188 4.863,236.959 5.031,236.678 5.119 C 236.397 5.208,236.003 5.470,235.801 5.701 C 235.599 5.933,235.268 6.122,235.064 6.122 C 234.860 6.122,234.694 6.217,234.694 6.333 C 234.694 6.645,233.241 7.319,233.151 7.048 C 233.109 6.924,232.470 6.753,231.730 6.670 C 230.991 6.586,230.385 6.429,230.385 6.320 C 230.385 6.211,230.130 6.122,229.819 6.122 C 229.507 6.122,229.252 6.020,229.252 5.896 C 229.252 5.771,228.895 5.669,228.458 5.669 C 228.022 5.669,227.664 5.572,227.664 5.453 C 227.664 5.335,227.052 5.169,226.304 5.084 C 225.556 4.999,224.943 4.841,224.943 4.733 C 224.943 4.624,224.688 4.535,224.376 4.535 C 224.065 4.535,223.810 4.433,223.810 4.308 C 223.810 4.184,223.473 4.082,223.061 4.082 C 222.650 4.082,222.208 3.977,222.080 3.849 C 221.952 3.721,221.319 3.554,220.674 3.477 C 220.029 3.401,219.501 3.250,219.501 3.143 C 219.501 3.036,214.807 2.948,209.070 2.948 C 203.333 2.948,198.639 3.029,198.639 3.128 C 198.639 3.227,197.951 3.432,197.109 3.584 C 194.713 4.016,194.331 4.119,194.331 4.334 C 194.331 4.445,193.974 4.535,193.537 4.535 C 193.101 4.535,192.744 4.628,192.744 4.741 C 192.744 4.854,192.234 5.016,191.610 5.102 C 190.986 5.188,190.476 5.350,190.476 5.463 C 190.476 5.576,190.170 5.669,189.796 5.669 C 189.422 5.669,189.116 5.771,189.116 5.896 C 189.116 6.020,188.861 6.122,188.549 6.122 C 188.237 6.122,187.982 6.223,187.982 6.347 C 187.982 6.470,187.574 6.636,187.075 6.716 C 186.576 6.795,186.168 6.950,186.168 7.058 C 186.168 7.167,185.862 7.256,185.488 7.256 C 185.113 7.256,184.807 7.358,184.807 7.483 C 184.807 7.608,184.654 7.710,184.467 7.710 C 184.280 7.710,184.127 7.800,184.127 7.911 C 184.127 8.021,183.668 8.181,183.107 8.265 C 182.545 8.349,182.086 8.514,182.086 8.631 C 182.086 8.748,181.933 8.844,181.746 8.844 C 181.559 8.844,181.406 8.946,181.406 9.070 C 181.406 9.195,181.203 9.297,180.954 9.297 C 180.395 9.297,178.685 10.021,178.685 10.258 C 178.685 10.353,178.481 10.431,178.231 10.431 C 177.982 10.431,177.778 10.528,177.778 10.647 C 177.778 10.766,177.421 10.931,176.984 11.013 C 176.548 11.095,176.190 11.252,176.190 11.363 C 176.190 11.474,176.037 11.565,175.850 11.565 C 175.663 11.565,175.510 11.667,175.510 11.791 C 175.510 11.916,175.317 12.018,175.081 12.018 C 174.845 12.018,174.593 12.171,174.521 12.358 C 174.449 12.545,174.183 12.698,173.930 12.698 C 173.677 12.698,173.469 12.800,173.469 12.925 C 173.469 13.050,173.316 13.152,173.129 13.152 C 172.942 13.152,172.789 13.254,172.789 13.379 C 172.789 13.503,172.585 13.605,172.336 13.605 C 172.086 13.605,171.882 13.706,171.882 13.828 C 171.882 13.950,171.627 14.114,171.315 14.193 C 171.003 14.271,170.748 14.426,170.748 14.537 C 170.748 14.648,170.595 14.739,170.408 14.739 C 170.221 14.739,170.068 14.822,170.068 14.924 C 170.068 15.026,169.711 15.279,169.274 15.487 C 168.838 15.695,168.481 15.969,168.481 16.096 C 168.481 16.223,168.277 16.327,168.027 16.327 C 167.778 16.327,167.574 16.422,167.574 16.538 C 167.574 16.654,167.346 16.822,167.068 16.910 C 166.790 16.998,166.290 17.362,165.957 17.719 C 165.624 18.076,165.243 18.367,165.112 18.367 C 164.981 18.367,164.618 18.622,164.306 18.934 C 163.995 19.246,163.670 19.501,163.586 19.501 C 163.501 19.501,163.095 19.858,162.684 20.295 C 162.272 20.731,161.817 21.088,161.673 21.088 C 161.528 21.088,160.570 21.938,159.544 22.976 C 158.517 24.014,157.504 24.930,157.292 25.012 C 157.079 25.093,156.840 25.332,156.759 25.542 C 156.678 25.752,155.915 26.623,155.064 27.476 C 154.212 28.330,153.515 29.130,153.515 29.254 C 153.515 29.378,153.132 29.863,152.664 30.332 C 151.655 31.344,150.794 32.446,150.794 32.725 C 150.794 32.835,150.488 33.211,150.113 33.560 C 149.739 33.910,149.433 34.303,149.433 34.434 C 149.433 34.566,149.195 34.911,148.904 35.203 C 148.613 35.494,148.185 36.162,147.953 36.687 C 147.721 37.212,147.449 37.642,147.349 37.642 C 147.248 37.642,147.166 37.795,147.166 37.982 C 147.166 38.169,147.063 38.322,146.939 38.322 C 146.814 38.322,146.712 38.463,146.712 38.634 C 146.712 38.806,146.559 39.074,146.372 39.229 C 146.185 39.384,146.032 39.703,146.032 39.937 C 146.032 40.171,145.930 40.363,145.805 40.363 C 145.680 40.363,145.578 40.516,145.578 40.703 C 145.578 40.890,145.488 41.043,145.377 41.043 C 145.266 41.043,145.108 41.400,145.026 41.837 C 144.944 42.273,144.780 42.630,144.661 42.630 C 144.542 42.630,144.444 42.834,144.444 43.084 C 144.444 43.333,144.342 43.537,144.218 43.537 C 144.093 43.537,143.991 43.690,143.991 43.878 C 143.991 44.065,143.894 44.218,143.774 44.218 C 143.655 44.218,143.491 44.575,143.409 45.011 C 143.327 45.448,143.170 45.805,143.059 45.805 C 142.948 45.805,142.857 45.958,142.857 46.145 C 142.857 46.332,142.755 46.485,142.630 46.485 C 142.506 46.485,142.404 46.689,142.404 46.939 C 142.404 47.188,142.313 47.392,142.203 47.392 C 142.092 47.392,141.933 47.851,141.849 48.413 C 141.764 48.974,141.600 49.433,141.483 49.433 C 141.366 49.433,141.270 49.688,141.270 50.000 C 141.270 50.312,141.168 50.567,141.043 50.567 C 140.918 50.567,140.813 50.796,140.809 51.077 C 140.805 51.358,140.652 51.785,140.469 52.027 C 140.286 52.270,140.136 52.754,140.136 53.105 C 140.136 53.455,140.034 53.741,139.909 53.741 C 139.785 53.741,139.683 53.997,139.683 54.308 C 139.683 54.620,139.594 54.875,139.485 54.875 C 139.376 54.875,139.218 55.488,139.134 56.236 C 139.049 56.984,138.883 57.596,138.764 57.596 C 138.646 57.596,138.549 57.851,138.549 58.163 C 138.549 58.475,138.447 58.730,138.322 58.730 C 138.197 58.730,138.095 59.087,138.095 59.524 C 138.095 59.960,138.000 60.317,137.884 60.317 C 137.768 60.317,137.602 61.134,137.515 62.132 C 137.428 63.129,137.268 63.946,137.159 63.946 C 137.050 63.946,136.961 64.354,136.961 64.853 C 136.961 65.351,136.859 65.760,136.735 65.760 C 136.610 65.760,136.508 66.213,136.508 66.767 C 136.508 67.321,136.416 67.831,136.304 67.900 C 136.191 67.969,136.026 69.200,135.936 70.634 C 135.847 72.069,135.683 73.243,135.574 73.243 C 135.464 73.243,135.374 74.152,135.374 75.265 C 135.374 76.515,135.280 77.318,135.128 77.368 C 134.792 77.480,134.801 89.189,135.137 89.301 C 135.275 89.347,135.374 90.127,135.374 91.175 C 135.374 92.163,135.461 92.971,135.567 92.971 C 135.674 92.971,135.830 93.952,135.914 95.152 C 135.998 96.351,136.166 97.518,136.288 97.745 C 136.409 97.971,136.508 98.469,136.508 98.851 C 136.508 99.234,136.610 99.546,136.735 99.546 C 136.859 99.546,136.961 99.904,136.961 100.340 C 136.961 100.777,137.050 101.134,137.159 101.134 C 137.268 101.134,137.426 101.746,137.510 102.494 C 137.595 103.243,137.761 103.855,137.880 103.855 C 137.998 103.855,138.095 104.212,138.095 104.649 C 138.095 105.085,138.197 105.442,138.322 105.442 C 138.447 105.442,138.549 105.697,138.549 106.009 C 138.549 106.321,138.637 106.576,138.746 106.576 C 138.854 106.576,139.000 107.007,139.071 107.535 C 139.142 108.062,139.308 108.530,139.441 108.574 C 139.574 108.618,139.683 108.901,139.683 109.203 C 139.683 109.504,139.785 109.751,139.909 109.751 C 140.034 109.751,140.136 109.935,140.136 110.161 C 140.136 110.386,140.286 110.769,140.469 111.011 C 140.652 111.253,140.805 111.630,140.809 111.848 C 140.813 112.066,140.918 112.245,141.043 112.245 C 141.168 112.245,141.270 112.398,141.270 112.585 C 141.270 112.772,141.372 112.925,141.497 112.925 C 141.621 112.925,141.723 113.173,141.723 113.476 C 141.723 113.779,141.876 114.180,142.063 114.367 C 142.251 114.554,142.404 114.867,142.404 115.063 C 142.404 115.259,142.506 115.420,142.630 115.420 C 142.755 115.420,142.857 115.573,142.857 115.760 C 142.857 115.947,142.948 116.100,143.059 116.100 C 143.171 116.100,143.326 116.355,143.404 116.667 C 143.482 116.978,143.646 117.234,143.768 117.234 C 143.891 117.234,143.991 117.400,143.991 117.604 C 143.991 117.807,144.180 118.139,144.412 118.341 C 144.644 118.542,144.906 118.937,144.994 119.218 C 145.083 119.498,145.250 119.728,145.367 119.728 C 145.483 119.728,145.578 119.881,145.578 120.068 C 145.578 120.255,145.655 120.409,145.748 120.410 C 145.842 120.411,146.173 120.793,146.485 121.258 C 147.114 122.198,153.647 128.798,153.949 128.798 C 154.053 128.798,154.572 129.206,155.102 129.705 C 155.632 130.204,156.199 130.612,156.362 130.612 C 156.525 130.612,156.722 130.811,156.799 131.054 C 156.876 131.297,157.138 131.559,157.381 131.636 C 157.624 131.713,157.823 131.867,157.823 131.978 C 157.823 132.088,158.104 132.441,158.447 132.762 C 159.090 133.364,159.179 133.451,160.023 134.303 C 160.298 134.580,160.655 134.930,160.817 135.080 C 160.979 135.230,161.224 135.485,161.362 135.647 C 161.805 136.166,162.809 136.961,163.021 136.961 C 163.135 136.961,163.262 137.042,163.303 137.141 C 163.345 137.240,163.787 137.622,164.286 137.990 C 164.785 138.358,165.274 138.788,165.374 138.944 C 165.474 139.101,165.732 139.229,165.948 139.229 C 166.163 139.229,166.487 139.433,166.667 139.683 C 166.846 139.932,167.124 140.136,167.284 140.136 C 167.443 140.136,167.574 140.236,167.574 140.358 C 167.574 140.481,167.829 140.645,168.141 140.723 C 168.452 140.801,168.707 140.956,168.707 141.068 C 168.707 141.179,168.912 141.270,169.161 141.270 C 169.410 141.270,169.615 141.372,169.615 141.497 C 169.615 141.621,169.768 141.723,169.955 141.723 C 170.142 141.723,170.295 141.823,170.295 141.946 C 170.295 142.068,170.550 142.232,170.862 142.311 C 171.173 142.389,171.429 142.544,171.429 142.655 C 171.429 142.766,171.633 142.857,171.882 142.857 C 172.132 142.857,172.336 142.953,172.336 143.070 C 172.336 143.187,172.795 143.352,173.356 143.436 C 173.917 143.520,174.376 143.679,174.376 143.790 C 174.376 143.900,174.529 143.991,174.717 143.991 C 174.904 143.991,175.057 144.093,175.057 144.218 C 175.057 144.342,175.261 144.444,175.510 144.444 C 175.760 144.444,175.964 144.533,175.964 144.642 C 175.964 144.751,176.372 144.905,176.871 144.985 C 177.370 145.065,177.778 145.231,177.778 145.354 C 177.778 145.477,178.084 145.578,178.458 145.578 C 178.832 145.578,179.138 145.680,179.138 145.805 C 179.138 145.930,179.424 146.032,179.773 146.032 C 180.122 146.032,180.513 146.136,180.641 146.265 C 180.769 146.393,181.402 146.560,182.047 146.636 C 182.692 146.713,183.220 146.863,183.220 146.970 C 183.220 147.078,183.577 147.166,184.014 147.166 C 184.450 147.166,184.807 147.268,184.807 147.392 C 184.807 147.517,185.246 147.619,185.782 147.619 C 186.319 147.619,186.860 147.722,186.986 147.848 C 187.112 147.974,188.663 148.143,190.433 148.223 C 192.203 148.304,193.651 148.456,193.651 148.561 C 193.651 148.812,204.926 148.812,205.080 148.561 C 205.146 148.455,206.593 148.299,208.297 148.214 C 210.001 148.128,211.579 147.959,211.805 147.839 C 212.030 147.718,212.579 147.619,213.024 147.619 C 213.468 147.619,213.832 147.517,213.832 147.392 C 213.832 147.268,214.189 147.166,214.626 147.166 C 215.062 147.166,215.420 147.074,215.420 146.962 C 215.420 146.850,216.134 146.686,217.007 146.599 C 217.880 146.511,218.594 146.348,218.594 146.235 C 218.594 146.123,218.900 146.032,219.274 146.032 C 219.649 146.032,219.955 145.930,219.955 145.805 C 219.955 145.680,220.261 145.578,220.635 145.578 C 221.009 145.578,221.315 145.490,221.315 145.381 C 221.315 145.273,221.747 145.127,222.274 145.056 C 222.801 144.985,223.269 144.819,223.313 144.686 C 223.358 144.553,223.640 144.444,223.942 144.444 C 224.243 144.444,224.490 144.342,224.490 144.218 C 224.490 144.093,224.745 143.991,225.057 143.991 C 225.368 143.991,225.624 143.900,225.624 143.789 C 225.624 143.679,225.981 143.521,226.417 143.439 C 226.854 143.357,227.211 143.193,227.211 143.074 C 227.211 142.955,227.415 142.857,227.664 142.857 C 227.914 142.857,228.118 142.755,228.118 142.630 C 228.118 142.506,228.321 142.404,228.570 142.404 C 229.129 142.404,230.839 141.680,230.839 141.443 C 230.839 141.348,230.992 141.270,231.179 141.270 C 231.366 141.270,231.519 141.183,231.519 141.077 C 231.519 140.971,231.978 140.695,232.540 140.464 C 233.101 140.232,233.560 139.962,233.560 139.863 C 233.560 139.764,233.764 139.683,234.014 139.683 C 234.263 139.683,234.467 139.582,234.467 139.460 C 234.467 139.338,234.722 139.174,235.034 139.095 C 235.346 139.017,235.601 138.862,235.601 138.751 C 235.601 138.640,235.716 138.549,235.858 138.549 C 235.999 138.549,236.280 138.359,236.481 138.128 C 236.683 137.896,237.078 137.634,237.358 137.546 C 237.639 137.457,237.868 137.289,237.868 137.173 C 237.868 137.057,238.073 136.961,238.322 136.961 C 238.571 136.961,238.776 136.864,238.776 136.745 C 238.776 136.626,239.133 136.360,239.569 136.153 C 240.006 135.945,240.363 135.686,240.363 135.575 C 240.363 135.465,240.469 135.374,240.599 135.374 C 240.730 135.374,241.111 135.119,241.447 134.807 C 241.784 134.495,242.143 134.240,242.246 134.240 C 242.350 134.240,242.771 133.883,243.183 133.447 C 243.594 133.010,244.028 132.653,244.147 132.653 C 244.266 132.653,244.582 132.423,244.849 132.143 C 245.592 131.364,246.454 130.612,246.603 130.612 C 247.127 130.612,255.102 122.071,255.102 121.510 C 255.102 121.278,255.204 121.088,255.329 121.088 C 255.454 121.088,255.556 120.833,255.556 120.522 C 255.556 120.210,255.658 119.955,255.782 119.955 C 255.907 119.955,256.009 119.700,256.009 119.388 C 256.009 119.076,256.101 118.821,256.213 118.821 C 256.325 118.821,256.488 118.107,256.576 117.234 C 256.664 116.361,256.827 115.646,256.939 115.646 C 257.051 115.646,257.143 115.244,257.143 114.753 C 257.143 114.261,257.245 113.796,257.370 113.719 C 257.499 113.639,257.596 112.469,257.596 110.984 C 257.596 109.406,257.508 108.390,257.370 108.390 C 257.245 108.390,257.143 107.931,257.143 107.370 C 257.143 106.808,257.041 106.349,256.916 106.349 C 256.791 106.349,256.689 106.033,256.689 105.647 C 256.689 104.815,255.744 102.473,255.159 101.855 C 255.003 101.690,254.875 101.409,254.875 101.231 C 254.875 101.053,254.773 100.907,254.649 100.907 C 254.524 100.907,254.422 100.703,254.422 100.454 C 254.422 100.204,254.342 100.000,254.244 100.000 C 254.146 100.000,253.878 99.682,253.648 99.293 C 253.419 98.904,252.402 97.783,251.389 96.800 C 250.375 95.818,249.444 94.907,249.320 94.776 C 249.195 94.645,248.149 93.585,246.995 92.420 C 245.842 91.256,244.898 90.196,244.898 90.066 C 244.898 89.935,244.668 89.643,244.388 89.416 C 244.107 89.188,243.734 88.723,243.558 88.382 C 243.341 87.962,242.994 87.716,242.481 87.620 C 242.064 87.542,241.723 87.412,241.723 87.332 C 241.723 86.980,238.582 85.941,237.520 85.941 C 237.088 85.941,236.735 85.839,236.735 85.714 C 236.735 85.573,235.412 85.488,233.220 85.488 C 231.287 85.488,229.705 85.575,229.705 85.682 C 229.705 85.789,228.968 85.944,228.066 86.028 C 227.165 86.112,226.328 86.280,226.207 86.401 C 226.086 86.522,225.752 86.621,225.465 86.621 C 225.178 86.621,224.943 86.723,224.943 86.848 C 224.943 86.973,224.837 87.075,224.707 87.075 C 224.460 87.075,224.152 87.301,223.242 88.152 C 222.942 88.433,222.630 88.662,222.548 88.662 C 222.258 88.662,219.955 91.193,219.955 91.512 C 219.955 91.691,219.857 91.837,219.738 91.837 C 219.456 91.837,218.367 92.927,218.367 93.210 C 218.367 93.330,218.054 93.756,217.671 94.156 C 217.289 94.557,216.919 95.168,216.849 95.515 C 216.780 95.862,216.643 96.145,216.545 96.145 C 216.299 96.145,215.193 98.408,215.193 98.911 C 215.193 99.136,215.091 99.320,214.966 99.320 C 214.841 99.320,214.739 99.677,214.739 100.113 C 214.739 100.550,214.649 100.907,214.539 100.907 C 214.429 100.907,214.268 101.570,214.181 102.381 C 214.047 103.629,213.956 103.855,213.587 103.855 C 213.348 103.855,213.152 103.957,213.152 104.082 C 213.152 104.206,212.999 104.308,212.812 104.308 C 212.625 104.308,212.472 104.410,212.472 104.535 C 212.472 104.660,212.268 104.762,212.018 104.762 C 211.769 104.762,211.565 104.864,211.565 104.989 C 211.565 105.113,211.361 105.215,211.113 105.215 C 210.554 105.215,208.844 105.939,208.844 106.176 C 208.844 106.271,208.588 106.349,208.277 106.349 C 207.965 106.349,207.710 106.440,207.710 106.550 C 207.710 106.661,207.253 106.820,206.695 106.903 C 206.136 106.987,205.620 107.152,205.547 107.269 C 205.475 107.387,205.187 107.483,204.907 107.483 C 204.628 107.483,204.302 107.576,204.184 107.690 C 203.938 107.926,201.623 108.373,199.773 108.543 C 199.087 108.605,198.429 108.750,198.311 108.863 C 198.017 109.145,195.465 109.127,195.465 108.844 C 195.465 108.719,194.916 108.617,194.245 108.617 C 193.575 108.617,192.660 108.464,192.212 108.277 C 191.764 108.090,191.139 107.937,190.824 107.937 C 190.508 107.937,190.249 107.859,190.249 107.765 C 190.249 107.591,189.417 107.191,188.492 106.921 C 188.197 106.835,187.982 106.593,187.982 106.347 C 187.982 106.114,187.880 105.859,187.755 105.782 C 187.630 105.705,187.528 105.496,187.528 105.317 C 187.528 104.855,186.775 103.175,186.568 103.175 C 186.473 103.175,186.395 102.664,186.395 102.041 C 186.395 101.417,186.303 100.907,186.191 100.907 C 186.080 100.907,185.920 99.402,185.838 97.562 C 185.755 95.723,185.587 94.011,185.463 93.759 C 185.018 92.846,185.706 79.138,186.197 79.138 C 186.306 79.138,186.395 78.679,186.395 78.118 C 186.395 77.557,186.497 77.098,186.621 77.098 C 186.746 77.098,186.848 76.689,186.848 76.190 C 186.848 75.692,186.940 75.283,187.052 75.283 C 187.164 75.283,187.327 74.569,187.415 73.696 C 187.503 72.823,187.666 72.109,187.778 72.109 C 187.890 72.109,187.982 71.854,187.982 71.542 C 187.982 71.230,188.084 70.975,188.209 70.975 C 188.333 70.975,188.435 70.618,188.435 70.181 C 188.435 69.745,188.530 69.388,188.646 69.388 C 188.762 69.388,188.926 68.827,189.012 68.141 C 189.098 67.455,189.258 66.893,189.369 66.893 C 189.479 66.893,189.569 66.638,189.569 66.327 C 189.569 66.015,189.671 65.760,189.796 65.760 C 189.921 65.760,190.023 65.505,190.023 65.193 C 190.023 64.881,190.118 64.626,190.236 64.626 C 190.353 64.626,190.517 64.167,190.601 63.605 C 190.686 63.044,190.845 62.585,190.955 62.585 C 191.066 62.585,191.156 62.432,191.156 62.245 C 191.156 62.058,191.247 61.905,191.358 61.905 C 191.469 61.905,191.627 61.548,191.708 61.111 C 191.790 60.675,191.936 60.317,192.031 60.317 C 192.127 60.317,192.346 59.960,192.517 59.524 C 192.688 59.087,192.900 58.730,192.988 58.730 C 193.076 58.730,193.212 58.475,193.290 58.163 C 193.369 57.851,193.533 57.596,193.655 57.596 C 193.777 57.596,193.878 57.417,193.878 57.197 C 193.878 56.978,194.082 56.671,194.331 56.515 C 194.580 56.359,194.786 56.105,194.788 55.950 C 194.791 55.796,195.046 55.429,195.355 55.135 C 195.665 54.841,195.918 54.505,195.918 54.387 C 195.918 54.270,196.173 53.937,196.485 53.648 C 196.797 53.359,197.052 53.007,197.052 52.867 C 197.052 52.578,200.154 49.433,200.439 49.433 C 200.541 49.433,201.103 48.974,201.688 48.413 C 202.274 47.851,202.892 47.392,203.062 47.392 C 203.232 47.392,203.436 47.188,203.515 46.939 C 203.594 46.689,203.849 46.485,204.081 46.485 C 204.313 46.485,204.656 46.332,204.843 46.145 C 205.030 45.958,205.270 45.805,205.376 45.805 C 205.482 45.805,205.711 45.608,205.884 45.367 C 206.084 45.090,206.601 44.875,207.295 44.779 C 207.897 44.696,208.390 44.536,208.390 44.423 C 208.390 44.310,208.645 44.218,208.957 44.218 C 209.269 44.218,209.524 44.126,209.524 44.014 C 209.524 43.902,210.238 43.738,211.111 43.651 C 211.984 43.563,212.698 43.400,212.698 43.288 C 212.698 43.176,213.158 43.084,213.719 43.084 C 214.280 43.084,214.739 42.982,214.739 42.857 C 214.739 42.724,215.533 42.630,216.667 42.630 C 217.800 42.630,218.594 42.537,218.594 42.404 C 218.594 42.279,218.900 42.177,219.274 42.177 C 219.649 42.177,219.955 42.279,219.955 42.404 C 219.955 42.528,220.415 42.630,220.978 42.630 C 221.541 42.630,222.179 42.725,222.395 42.841 C 222.612 42.956,222.970 43.107,223.191 43.176 C 223.412 43.244,223.653 43.481,223.726 43.702 C 223.798 43.923,224.000 44.426,224.174 44.819 C 224.348 45.212,224.490 45.793,224.490 46.109 C 224.490 46.426,224.592 46.748,224.717 46.825 C 224.841 46.902,224.943 47.215,224.943 47.519 C 224.943 47.823,225.045 48.073,225.170 48.073 C 225.295 48.073,225.397 48.523,225.397 49.074 C 225.397 49.625,225.493 50.110,225.611 50.151 C 225.728 50.193,225.896 51.273,225.983 52.551 C 226.070 53.829,226.229 54.875,226.336 54.875 C 226.443 54.875,226.531 55.138,226.531 55.458 C 226.531 55.779,226.684 56.195,226.871 56.382 C 227.058 56.569,227.211 56.919,227.211 57.159 C 227.211 57.400,227.313 57.596,227.438 57.596 C 227.562 57.596,227.664 57.727,227.664 57.886 C 227.664 58.046,227.868 58.324,228.118 58.503 C 228.367 58.683,228.571 58.975,228.571 59.152 C 228.571 59.329,229.064 59.945,229.666 60.519 C 230.268 61.094,230.830 61.753,230.914 61.983 C 230.999 62.213,231.272 62.455,231.520 62.520 C 231.769 62.585,231.973 62.728,231.973 62.838 C 231.973 62.948,232.170 63.039,232.411 63.039 C 232.652 63.039,232.914 63.243,232.993 63.492 C 233.072 63.741,233.228 63.946,233.338 63.946 C 233.449 63.946,235.266 65.680,237.376 67.800 C 240.709 71.150,241.305 71.655,241.921 71.655 C 242.311 71.655,242.630 71.757,242.630 71.882 C 242.630 72.007,243.084 72.109,243.637 72.109 C 244.191 72.109,244.708 72.211,244.785 72.336 C 244.971 72.637,250.947 72.637,251.134 72.336 C 251.211 72.211,251.625 72.109,252.054 72.109 C 252.483 72.109,252.834 72.018,252.834 71.908 C 252.834 71.797,253.291 71.638,253.850 71.555 C 254.408 71.471,254.924 71.306,254.997 71.189 C 255.069 71.071,255.327 70.975,255.569 70.975 C 255.811 70.975,256.009 70.873,256.009 70.748 C 256.009 70.624,256.162 70.522,256.349 70.522 C 256.536 70.522,256.689 70.432,256.689 70.323 C 256.689 70.214,256.995 70.064,257.369 69.989 C 258.133 69.836,260.317 67.807,260.317 67.250 C 260.317 67.054,260.411 66.893,260.526 66.893 C 260.641 66.893,260.802 66.587,260.884 66.213 C 260.967 65.839,261.128 65.533,261.243 65.533 C 261.357 65.533,261.451 65.227,261.451 64.853 C 261.451 64.478,261.553 64.172,261.678 64.172 C 261.803 64.172,261.905 63.926,261.905 63.624 C 261.905 63.323,262.029 63.035,262.181 62.984 C 262.373 62.920,262.484 61.956,262.547 59.791 C 262.597 58.085,262.728 56.689,262.838 56.689 C 262.948 56.689,263.039 55.822,263.039 54.762 C 263.039 53.628,263.132 52.834,263.265 52.834 C 263.390 52.834,263.492 52.941,263.492 53.071 C 263.492 53.588,265.922 56.009,266.442 56.009 C 266.565 56.009,266.667 56.111,266.667 56.236 C 266.667 56.361,266.812 56.463,266.990 56.463 C 267.167 56.463,268.978 58.132,271.015 60.172 C 273.051 62.212,274.941 63.952,275.215 64.038 C 275.489 64.125,275.777 64.394,275.854 64.637 C 275.931 64.881,276.191 65.079,276.433 65.079 C 276.674 65.079,276.871 65.177,276.871 65.296 C 276.871 65.415,277.228 65.579,277.664 65.661 C 278.101 65.743,278.458 65.901,278.458 66.012 C 278.458 66.122,278.693 66.213,278.980 66.213 C 279.266 66.213,279.629 66.341,279.785 66.497 C 280.194 66.905,290.737 66.905,290.873 66.497 C 291.114 65.774,291.383 66.343,291.383 67.574 C 291.383 68.322,291.290 68.934,291.177 68.934 C 290.967 68.934,290.924 69.258,290.440 74.433 C 290.292 76.023,290.086 77.324,289.983 77.324 C 289.880 77.324,289.796 77.937,289.796 78.685 C 289.796 79.433,289.703 80.045,289.589 80.045 C 289.474 80.045,289.324 80.683,289.254 81.463 C 288.864 85.819,288.560 88.209,288.395 88.209 C 288.292 88.209,288.209 88.815,288.209 89.556 C 288.209 90.297,288.119 90.958,288.009 91.026 C 287.900 91.094,287.736 92.426,287.646 93.987 C 287.556 95.548,287.391 96.825,287.279 96.825 C 287.167 96.825,287.075 97.432,287.075 98.173 C 287.075 98.913,286.973 99.583,286.848 99.660 C 286.723 99.737,286.621 100.406,286.621 101.147 C 286.621 101.888,286.530 102.494,286.419 102.494 C 286.308 102.494,286.144 103.515,286.054 104.762 C 285.965 106.009,285.801 107.029,285.690 107.029 C 285.579 107.029,285.488 107.489,285.488 108.050 C 285.488 108.987,285.441 109.070,284.921 109.070 C 284.609 109.070,284.354 109.159,284.354 109.268 C 284.354 109.376,283.741 109.534,282.993 109.619 C 282.245 109.704,281.633 109.870,281.633 109.989 C 281.633 110.107,281.435 110.204,281.193 110.204 C 280.950 110.204,280.689 110.306,280.612 110.431 C 280.535 110.556,280.274 110.658,280.032 110.658 C 279.790 110.658,279.592 110.747,279.592 110.856 C 279.592 110.965,279.311 111.111,278.968 111.181 C 278.625 111.250,278.119 111.518,277.844 111.776 C 277.569 112.034,277.237 112.245,277.107 112.245 C 276.977 112.245,276.871 112.347,276.871 112.472 C 276.871 112.596,276.725 112.698,276.546 112.698 C 276.227 112.698,273.696 115.002,273.696 115.292 C 273.696 115.373,273.441 115.714,273.129 116.051 C 272.817 116.387,272.562 116.791,272.562 116.948 C 272.562 117.105,272.460 117.234,272.336 117.234 C 272.211 117.234,272.109 117.432,272.109 117.674 C 272.109 117.916,272.013 118.173,271.895 118.246 C 271.778 118.318,271.613 118.835,271.529 119.393 C 271.446 119.951,271.287 120.408,271.176 120.408 C 271.066 120.408,270.975 120.765,270.975 121.202 C 270.975 121.638,270.873 121.995,270.748 121.995 C 270.252 121.995,270.466 130.693,270.975 131.240 C 271.224 131.508,271.429 131.829,271.429 131.953 C 271.429 132.077,271.684 132.434,271.995 132.746 C 272.307 133.058,272.562 133.419,272.562 133.550 C 272.562 133.680,272.650 133.787,272.757 133.787 C 272.865 133.787,273.331 134.144,273.794 134.580 C 274.257 135.017,274.781 135.374,274.959 135.374 C 275.138 135.374,275.283 135.469,275.283 135.586 C 275.283 135.702,275.483 135.860,275.726 135.938 C 275.969 136.015,277.887 137.782,279.988 139.864 C 284.264 144.104,285.100 144.821,285.998 145.022 C 286.341 145.098,286.621 145.255,286.621 145.369 C 286.621 145.496,304.366 145.578,331.633 145.578 C 361.489 145.578,376.644 145.502,376.644 145.351 C 376.644 145.226,377.243 145.125,377.988 145.125 C 378.881 145.125,379.447 145.010,379.673 144.785 C 379.860 144.598,380.074 144.444,380.149 144.444 C 380.806 144.444,384.632 140.070,384.747 139.187 C 384.818 138.649,384.942 138.158,385.023 138.095 C 385.232 137.935,385.941 136.376,385.941 136.077 C 385.941 135.940,386.043 135.828,386.168 135.828 C 386.293 135.828,386.395 135.573,386.395 135.261 C 386.395 134.949,386.497 134.694,386.621 134.694 C 386.746 134.694,386.848 134.490,386.848 134.240 C 386.848 133.991,386.939 133.787,387.049 133.787 C 387.160 133.787,387.319 133.328,387.403 132.766 C 387.487 132.205,387.652 131.746,387.769 131.746 C 387.886 131.746,387.982 131.491,387.982 131.179 C 387.982 130.867,388.084 130.612,388.209 130.612 C 388.333 130.612,388.435 130.366,388.435 130.064 C 388.435 129.763,388.544 129.480,388.677 129.436 C 388.810 129.392,388.976 128.924,389.047 128.396 C 389.117 127.869,389.264 127.438,389.372 127.438 C 389.481 127.438,389.569 127.285,389.569 127.098 C 389.569 126.910,389.671 126.757,389.796 126.757 C 389.921 126.757,390.023 126.314,390.023 125.772 C 390.023 124.893,390.277 124.088,390.944 122.849 C 391.061 122.632,391.156 122.250,391.156 121.999 C 391.156 121.747,391.257 121.542,391.381 121.542 C 391.504 121.542,391.670 121.134,391.750 120.635 C 391.829 120.136,391.984 119.728,392.092 119.728 C 392.201 119.728,392.290 119.524,392.290 119.274 C 392.290 119.025,392.392 118.821,392.517 118.821 C 392.642 118.821,392.744 118.566,392.744 118.254 C 392.744 117.942,392.840 117.687,392.957 117.687 C 393.074 117.687,393.238 117.228,393.323 116.667 C 393.407 116.105,393.566 115.646,393.677 115.646 C 393.787 115.646,393.878 115.493,393.878 115.306 C 393.878 115.119,393.980 114.966,394.104 114.966 C 394.229 114.966,394.331 114.774,394.331 114.538 C 394.331 114.303,394.483 113.819,394.670 113.461 C 394.856 113.104,395.009 112.582,395.010 112.302 C 395.011 112.021,395.088 111.791,395.181 111.790 C 395.432 111.787,395.918 110.646,395.918 110.059 C 395.918 109.779,396.009 109.494,396.120 109.426 C 396.231 109.357,396.395 108.178,396.485 106.805 C 396.575 105.432,396.739 104.308,396.850 104.308 C 396.961 104.308,397.052 103.594,397.052 102.721 C 397.052 101.814,396.955 101.134,396.825 101.134 C 396.701 101.134,396.599 101.022,396.599 100.885 C 396.599 100.449,395.843 98.993,395.420 98.613 C 395.195 98.411,395.011 98.127,395.011 97.982 C 395.011 97.837,394.603 97.343,394.104 96.884 C 393.605 96.426,393.197 95.953,393.197 95.835 C 393.197 95.716,391.514 93.942,389.456 91.893 C 387.398 89.843,385.714 88.063,385.714 87.936 C 385.714 87.810,385.153 87.154,384.467 86.479 C 383.259 85.290,382.639 83.447,383.447 83.447 C 383.573 83.447,383.673 82.842,383.673 82.086 C 383.673 81.338,383.767 80.726,383.881 80.726 C 383.995 80.726,384.144 80.088,384.213 79.308 C 384.515 75.868,384.934 72.584,385.091 72.429 C 385.184 72.336,385.261 71.665,385.261 70.937 C 385.261 70.210,385.352 69.615,385.462 69.615 C 385.573 69.615,385.738 68.390,385.828 66.893 C 385.918 65.397,386.082 64.172,386.193 64.172 C 386.304 64.172,386.395 63.560,386.395 62.812 C 386.395 62.056,386.495 61.451,386.621 61.451 C 386.750 61.451,386.848 60.786,386.848 59.909 C 386.848 58.078,387.206 57.147,387.912 57.145 C 388.185 57.144,388.472 57.041,388.549 56.916 C 388.626 56.791,388.846 56.689,389.038 56.689 C 389.394 56.689,390.950 56.027,391.156 55.788 C 391.219 55.716,391.701 55.466,392.228 55.234 C 392.756 55.001,393.247 54.621,393.321 54.390 C 393.394 54.158,393.635 53.968,393.855 53.968 C 394.268 53.968,395.465 52.790,395.465 52.383 C 395.465 52.257,395.567 52.154,395.692 52.154 C 395.816 52.154,395.918 51.950,395.918 51.701 C 395.918 51.451,396.016 51.247,396.135 51.247 C 396.254 51.247,396.418 50.890,396.500 50.454 C 396.582 50.017,396.715 49.660,396.795 49.660 C 397.178 49.660,397.501 48.172,397.643 45.748 C 397.729 44.283,397.886 43.084,397.992 43.084 C 398.099 43.084,398.186 41.910,398.186 40.476 C 398.186 38.889,398.275 37.868,398.413 37.868 C 398.539 37.868,398.639 37.264,398.639 36.508 C 398.639 35.760,398.726 35.147,398.832 35.147 C 398.938 35.147,399.092 34.209,399.173 33.063 C 399.264 31.787,399.431 30.911,399.604 30.804 C 399.988 30.566,400.017 16.166,399.634 15.921 C 399.495 15.832,399.304 15.505,399.211 15.193 C 399.117 14.881,398.721 14.301,398.330 13.905 C 397.939 13.508,397.494 13.049,397.342 12.884 C 397.189 12.720,396.948 12.469,396.806 12.327 C 396.664 12.185,396.293 11.814,395.981 11.502 C 395.669 11.190,395.312 10.833,395.188 10.708 C 395.063 10.583,394.712 10.215,394.409 9.889 C 394.105 9.564,393.766 9.297,393.656 9.297 C 393.545 9.297,393.391 9.098,393.314 8.855 C 393.237 8.612,392.997 8.357,392.781 8.289 C 392.565 8.220,392.219 7.883,392.013 7.540 C 391.807 7.197,391.172 6.414,390.603 5.800 C 390.035 5.186,389.569 4.590,389.569 4.476 C 389.569 4.186,387.109 1.814,386.808 1.814 C 386.672 1.814,386.396 1.625,386.194 1.393 C 385.993 1.161,385.573 0.893,385.261 0.796 C 384.949 0.699,384.621 0.505,384.532 0.366 C 384.381 0.130,303.536 -0.059,298.923 0.166 M89.116 3.150 C 89.116 3.312,88.503 3.401,87.393 3.401 C 85.620 3.401,84.359 3.790,83.673 4.548 C 83.486 4.755,83.104 4.996,82.823 5.085 C 82.543 5.173,82.313 5.341,82.313 5.457 C 82.313 5.574,82.206 5.669,82.076 5.669 C 81.867 5.669,81.319 6.108,80.480 6.948 C 80.338 7.090,79.967 7.461,79.655 7.773 C 79.343 8.084,78.986 8.442,78.861 8.566 C 77.990 9.438,77.583 9.974,77.432 10.450 C 77.337 10.751,77.070 11.163,76.838 11.364 C 76.607 11.566,76.417 11.898,76.417 12.101 C 76.417 12.305,76.323 12.472,76.208 12.472 C 76.094 12.472,75.931 12.783,75.848 13.163 C 75.764 13.543,75.501 13.976,75.263 14.124 C 75.025 14.273,74.830 14.574,74.830 14.794 C 74.830 15.013,74.730 15.193,74.607 15.193 C 74.485 15.193,74.321 15.448,74.243 15.760 C 74.165 16.071,74.010 16.327,73.898 16.327 C 73.787 16.327,73.696 16.480,73.696 16.667 C 73.696 16.854,73.617 17.007,73.520 17.007 C 73.423 17.007,73.143 17.465,72.897 18.025 C 72.650 18.585,72.372 19.044,72.279 19.045 C 72.185 19.047,72.109 19.241,72.109 19.477 C 72.109 19.713,71.956 19.965,71.769 20.037 C 71.582 20.108,71.429 20.374,71.429 20.628 C 71.429 20.881,71.327 21.088,71.202 21.088 C 71.077 21.088,70.975 21.219,70.975 21.379 C 70.975 21.538,70.775 21.813,70.530 21.989 C 70.285 22.166,70.016 22.622,69.933 23.003 C 69.849 23.384,69.590 23.861,69.357 24.063 C 69.125 24.264,68.934 24.545,68.934 24.686 C 68.934 24.828,68.845 24.943,68.736 24.943 C 68.627 24.943,68.473 25.263,68.395 25.654 C 68.317 26.045,68.070 26.530,67.845 26.731 C 67.621 26.933,67.261 27.455,67.046 27.891 C 66.580 28.834,66.153 29.549,65.960 29.705 C 65.884 29.768,65.749 30.048,65.662 30.329 C 65.574 30.609,65.407 30.839,65.291 30.839 C 65.175 30.839,65.079 31.043,65.079 31.293 C 65.079 31.542,64.977 31.746,64.853 31.746 C 64.728 31.746,64.626 31.899,64.626 32.086 C 64.626 32.273,64.535 32.426,64.424 32.426 C 64.312 32.426,64.157 32.681,64.079 32.993 C 64.001 33.305,63.837 33.560,63.715 33.560 C 63.592 33.560,63.492 33.764,63.492 34.014 C 63.492 34.263,63.390 34.467,63.265 34.467 C 63.141 34.467,63.039 34.620,63.039 34.807 C 63.039 34.994,62.938 35.147,62.816 35.147 C 62.694 35.147,62.530 35.402,62.451 35.714 C 62.373 36.026,62.218 36.281,62.107 36.281 C 61.996 36.281,61.905 36.485,61.905 36.735 C 61.905 36.984,61.819 37.188,61.714 37.188 C 61.609 37.188,61.328 37.571,61.090 38.039 C 60.852 38.506,60.606 38.940,60.542 39.002 C 60.478 39.065,60.223 39.524,59.975 40.023 C 59.727 40.522,59.447 40.964,59.354 41.005 C 59.260 41.047,59.184 41.252,59.184 41.461 C 59.184 41.670,58.992 41.960,58.759 42.106 C 58.525 42.252,58.263 42.654,58.177 42.998 C 58.090 43.342,57.839 43.783,57.619 43.977 C 57.399 44.172,57.029 44.765,56.797 45.295 C 56.565 45.825,56.293 46.259,56.192 46.259 C 56.091 46.259,56.009 46.412,56.009 46.599 C 56.009 46.786,55.907 46.939,55.782 46.939 C 55.658 46.939,55.556 47.143,55.556 47.392 C 55.556 47.642,55.465 47.846,55.353 47.846 C 55.242 47.846,55.087 48.101,55.009 48.413 C 54.931 48.724,54.767 48.980,54.644 48.980 C 54.522 48.980,54.422 49.133,54.422 49.320 C 54.422 49.507,54.320 49.660,54.195 49.660 C 54.070 49.660,53.968 49.851,53.968 50.086 C 53.968 50.320,53.815 50.638,53.628 50.794 C 53.441 50.949,53.288 51.217,53.288 51.388 C 53.288 51.560,53.186 51.701,53.061 51.701 C 52.937 51.701,52.834 51.810,52.834 51.944 C 52.834 52.077,52.681 52.340,52.494 52.527 C 52.307 52.714,52.154 53.064,52.154 53.304 C 52.154 53.545,52.052 53.741,51.927 53.741 C 51.803 53.741,51.701 53.895,51.701 54.082 C 51.701 54.269,51.599 54.422,51.474 54.422 C 51.349 54.422,51.247 54.615,51.247 54.851 C 51.247 55.087,51.094 55.339,50.907 55.411 C 50.720 55.483,50.567 55.749,50.567 56.002 C 50.567 56.255,50.465 56.463,50.340 56.463 C 50.215 56.463,50.113 56.616,50.113 56.803 C 50.113 56.990,50.037 57.144,49.943 57.144 C 49.730 57.146,48.980 58.445,48.980 58.812 C 48.980 58.961,48.779 59.228,48.534 59.404 C 48.290 59.581,48.024 60.023,47.944 60.386 C 47.811 60.992,47.510 61.472,46.780 62.243 C 46.630 62.401,46.435 62.823,46.346 63.181 C 46.258 63.539,45.998 63.966,45.768 64.129 C 45.539 64.291,45.351 64.572,45.351 64.752 C 45.351 64.932,45.260 65.079,45.149 65.079 C 45.038 65.079,44.883 65.334,44.805 65.646 C 44.727 65.958,44.562 66.213,44.440 66.213 C 44.318 66.213,44.218 66.417,44.218 66.667 C 44.218 66.916,44.140 67.120,44.045 67.120 C 43.872 67.120,43.462 67.792,43.181 68.537 C 43.098 68.756,42.941 68.934,42.831 68.934 C 42.721 68.934,42.630 69.138,42.630 69.388 C 42.630 69.637,42.539 69.841,42.428 69.841 C 42.317 69.841,42.162 70.096,42.084 70.408 C 42.005 70.720,41.841 70.975,41.719 70.975 C 41.597 70.975,41.497 71.128,41.497 71.315 C 41.497 71.502,41.395 71.655,41.270 71.655 C 41.145 71.655,41.043 71.859,41.043 72.109 C 41.043 72.358,40.943 72.562,40.821 72.562 C 40.698 72.562,40.534 72.817,40.456 73.129 C 40.378 73.441,40.223 73.696,40.111 73.696 C 40.000 73.696,39.909 73.849,39.909 74.036 C 39.909 74.223,39.817 74.376,39.705 74.376 C 39.593 74.376,39.312 74.835,39.081 75.396 C 38.851 75.957,38.586 76.416,38.492 76.416 C 38.399 76.417,38.322 76.621,38.322 76.871 C 38.322 77.120,38.218 77.324,38.092 77.324 C 37.965 77.324,37.685 77.707,37.469 78.175 C 37.253 78.642,36.904 79.184,36.694 79.379 C 36.484 79.573,36.237 80.032,36.147 80.399 C 36.056 80.766,35.794 81.231,35.565 81.432 C 35.335 81.634,35.147 81.915,35.147 82.056 C 35.147 82.197,35.045 82.313,34.921 82.313 C 34.796 82.313,34.694 82.510,34.694 82.750 C 34.694 82.991,34.541 83.341,34.354 83.528 C 34.167 83.715,34.014 83.977,34.014 84.111 C 34.014 84.244,33.912 84.354,33.787 84.354 C 33.662 84.354,33.560 84.507,33.560 84.694 C 33.560 84.881,33.458 85.034,33.333 85.034 C 33.209 85.034,33.107 85.226,33.107 85.460 C 33.107 85.694,32.954 86.013,32.766 86.168 C 32.579 86.323,32.426 86.591,32.426 86.762 C 32.426 86.934,32.335 87.075,32.224 87.075 C 32.113 87.075,31.958 87.330,31.880 87.642 C 31.801 87.954,31.637 88.209,31.515 88.209 C 31.393 88.209,31.293 88.413,31.293 88.662 C 31.293 88.912,31.190 89.116,31.066 89.116 C 30.941 89.116,30.839 89.269,30.839 89.456 C 30.839 89.643,30.739 89.796,30.617 89.796 C 30.494 89.796,30.330 90.051,30.252 90.363 C 30.174 90.675,30.019 90.930,29.907 90.930 C 29.796 90.930,29.705 91.134,29.705 91.383 C 29.705 91.633,29.603 91.837,29.478 91.837 C 29.354 91.837,29.252 91.990,29.252 92.177 C 29.252 92.364,29.152 92.517,29.029 92.517 C 28.907 92.517,28.743 92.772,28.665 93.084 C 28.586 93.396,28.431 93.651,28.320 93.651 C 28.209 93.651,28.118 93.832,28.118 94.054 C 28.118 94.276,27.918 94.602,27.673 94.779 C 27.428 94.955,27.167 95.375,27.093 95.712 C 27.019 96.049,26.766 96.499,26.531 96.712 C 26.295 96.925,26.038 97.395,25.959 97.756 C 25.879 98.117,25.720 98.413,25.606 98.413 C 25.491 98.413,25.397 98.592,25.397 98.812 C 25.397 99.031,25.206 99.330,24.972 99.476 C 24.738 99.622,24.476 100.023,24.390 100.367 C 24.303 100.712,24.052 101.153,23.832 101.347 C 23.612 101.542,23.242 102.134,23.010 102.664 C 22.778 103.194,22.506 103.628,22.405 103.628 C 22.305 103.628,22.222 103.781,22.222 103.968 C 22.222 104.155,22.120 104.308,21.995 104.308 C 21.871 104.308,21.769 104.512,21.769 104.762 C 21.769 105.011,21.669 105.215,21.546 105.215 C 21.424 105.215,21.260 105.471,21.182 105.782 C 21.103 106.094,20.948 106.349,20.837 106.349 C 20.726 106.349,20.635 106.502,20.635 106.689 C 20.635 106.876,20.533 107.029,20.408 107.029 C 20.283 107.029,20.181 107.226,20.181 107.467 C 20.181 107.707,20.028 108.057,19.841 108.244 C 19.654 108.431,19.501 108.694,19.501 108.827 C 19.501 108.961,19.399 109.070,19.274 109.070 C 19.150 109.070,19.048 109.180,19.048 109.313 C 19.048 109.447,18.895 109.709,18.707 109.896 C 18.520 110.083,18.367 110.433,18.367 110.674 C 18.367 110.914,18.265 111.111,18.141 111.111 C 18.016 111.111,17.914 111.217,17.914 111.347 C 17.914 111.477,17.703 111.809,17.445 112.084 C 17.187 112.360,16.919 112.866,16.850 113.209 C 16.780 113.552,16.634 113.832,16.525 113.832 C 16.416 113.832,16.327 113.939,16.327 114.068 C 16.327 114.198,16.119 114.528,15.864 114.801 C 15.610 115.074,15.339 115.554,15.261 115.869 C 15.184 116.183,14.933 116.605,14.703 116.806 C 14.474 117.008,14.225 117.482,14.149 117.860 C 14.006 118.578,13.463 118.821,12.003 118.821 C 11.652 118.821,11.302 118.923,11.224 119.048 C 11.147 119.172,10.835 119.274,10.531 119.274 C 10.226 119.274,9.977 119.376,9.977 119.501 C 9.977 119.626,9.876 119.728,9.752 119.728 C 9.365 119.728,7.710 120.506,7.710 120.688 C 7.710 120.784,7.552 120.862,7.359 120.862 C 7.166 120.862,6.771 121.117,6.482 121.429 C 6.193 121.740,5.860 121.995,5.741 121.995 C 5.621 121.995,5.305 122.225,5.037 122.506 C 4.769 122.786,4.291 123.269,3.975 123.578 C 3.660 123.887,3.401 124.223,3.401 124.325 C 3.401 124.427,3.146 124.766,2.834 125.077 C 2.523 125.389,2.268 125.755,2.268 125.891 C 2.268 126.026,2.088 126.302,1.869 126.504 C 1.147 127.169,0.934 127.974,0.781 130.612 C 0.698 132.046,0.538 133.334,0.425 133.474 C 0.086 133.894,0.060 140.417,0.397 140.531 C 0.553 140.584,0.680 140.767,0.680 140.938 C 0.680 141.109,0.935 141.504,1.247 141.816 C 1.559 142.128,1.814 142.447,1.814 142.524 C 1.814 142.708,3.097 143.991,3.281 143.991 C 3.358 143.991,3.677 144.246,3.989 144.558 C 4.301 144.870,4.682 145.125,4.836 145.125 C 4.989 145.125,5.262 145.329,5.442 145.578 C 5.622 145.828,5.898 146.032,6.055 146.032 C 6.212 146.032,8.173 147.868,10.412 150.113 C 12.652 152.358,14.633 154.195,14.814 154.195 C 14.996 154.195,15.205 154.353,15.279 154.546 C 15.353 154.739,15.721 155.004,16.097 155.135 C 16.473 155.266,16.780 155.465,16.780 155.578 C 16.780 155.690,16.933 155.782,17.120 155.782 C 17.307 155.782,17.460 155.884,17.460 156.009 C 17.460 156.134,17.664 156.236,17.914 156.236 C 18.163 156.236,18.367 156.337,18.367 156.460 C 18.367 156.583,18.776 156.749,19.274 156.829 C 19.773 156.909,20.181 157.063,20.181 157.172 C 20.181 157.281,20.430 157.370,20.735 157.370 C 21.039 157.370,21.351 157.472,21.429 157.596 C 21.622 157.910,58.730 157.910,58.730 157.596 C 58.730 157.472,58.985 157.370,59.297 157.370 C 59.609 157.370,59.864 157.279,59.864 157.168 C 59.864 157.057,60.221 156.900,60.658 156.818 C 61.094 156.736,61.451 156.571,61.451 156.452 C 61.451 156.333,61.655 156.236,61.905 156.236 C 62.154 156.236,62.358 156.134,62.358 156.009 C 62.358 155.884,62.511 155.782,62.698 155.782 C 62.885 155.782,63.039 155.682,63.039 155.560 C 63.039 155.438,63.294 155.273,63.605 155.195 C 63.917 155.117,64.172 154.962,64.172 154.851 C 64.172 154.740,64.333 154.649,64.530 154.649 C 64.993 154.649,66.213 153.429,66.213 152.965 C 66.213 152.769,66.311 152.608,66.430 152.608 C 66.549 152.608,66.713 152.251,66.795 151.814 C 66.877 151.378,67.035 151.020,67.145 151.020 C 67.256 151.020,67.347 150.765,67.347 150.454 C 67.347 150.142,67.423 149.886,67.517 149.885 C 67.792 149.882,68.261 148.716,68.407 147.676 C 68.482 147.146,68.631 146.712,68.738 146.712 C 68.846 146.712,68.934 146.355,68.934 145.918 C 68.934 145.482,69.036 145.125,69.161 145.125 C 69.287 145.125,69.388 144.524,69.388 143.778 C 69.388 143.037,69.499 142.361,69.636 142.277 C 69.790 142.182,69.830 141.771,69.740 141.187 C 69.661 140.671,69.540 139.739,69.471 139.116 C 69.402 138.492,69.253 137.885,69.140 137.766 C 69.027 137.648,68.934 137.316,68.934 137.029 C 68.934 136.743,68.837 136.508,68.718 136.508 C 68.599 136.508,68.434 136.151,68.352 135.714 C 68.270 135.278,68.113 134.921,68.002 134.921 C 67.891 134.921,67.800 134.809,67.800 134.673 C 67.800 134.537,66.627 133.260,65.193 131.835 C 62.740 129.399,62.269 128.798,62.812 128.798 C 62.937 128.798,63.039 128.632,63.039 128.428 C 63.039 128.224,63.228 127.893,63.460 127.691 C 63.691 127.489,63.953 127.095,64.042 126.814 C 64.130 126.533,64.298 126.304,64.414 126.304 C 64.531 126.304,64.626 126.173,64.626 126.014 C 64.626 125.854,64.830 125.577,65.079 125.397 C 65.329 125.217,65.533 124.947,65.533 124.796 C 65.533 124.645,65.666 124.387,65.829 124.223 C 65.992 124.058,66.320 123.591,66.558 123.186 C 66.796 122.781,67.071 122.449,67.169 122.449 C 67.267 122.449,67.347 122.256,67.347 122.020 C 67.347 121.784,67.505 121.530,67.698 121.456 C 67.891 121.382,68.156 121.014,68.287 120.638 C 68.418 120.262,68.617 119.955,68.730 119.955 C 68.842 119.955,68.934 119.802,68.934 119.615 C 68.934 119.318,70.043 119.274,77.551 119.274 C 85.059 119.274,86.168 119.318,86.168 119.615 C 86.168 119.802,86.270 119.955,86.395 119.955 C 86.519 119.955,86.621 120.261,86.621 120.635 C 86.621 121.009,86.723 121.315,86.848 121.315 C 86.973 121.315,87.075 121.672,87.075 122.109 C 87.075 122.545,87.172 122.902,87.290 122.902 C 87.409 122.902,87.575 123.515,87.660 124.263 C 87.744 125.011,87.903 125.624,88.011 125.624 C 88.120 125.624,88.209 125.981,88.209 126.417 C 88.209 126.854,88.287 127.211,88.382 127.211 C 88.477 127.211,88.753 128.078,88.996 129.138 C 89.238 130.198,89.517 131.066,89.616 131.066 C 89.715 131.066,89.796 131.423,89.796 131.859 C 89.796 132.296,89.891 132.653,90.006 132.653 C 90.122 132.653,90.287 133.216,90.373 133.903 C 90.459 134.591,90.619 135.209,90.729 135.277 C 90.840 135.345,90.930 135.650,90.930 135.954 C 90.930 136.259,91.032 136.508,91.156 136.508 C 91.281 136.508,91.383 136.865,91.383 137.302 C 91.383 137.738,91.476 138.095,91.589 138.095 C 91.702 138.095,91.864 138.605,91.950 139.229 C 92.036 139.853,92.199 140.363,92.312 140.363 C 92.425 140.363,92.517 140.547,92.517 140.771 C 92.517 141.278,93.024 142.399,93.254 142.402 C 93.348 142.403,93.424 142.618,93.424 142.880 C 93.424 143.360,94.064 144.915,94.347 145.125 C 94.432 145.187,94.573 145.570,94.661 145.975 C 94.749 146.380,94.915 146.712,95.029 146.712 C 95.144 146.712,95.238 146.916,95.238 147.166 C 95.238 147.415,95.340 147.619,95.465 147.619 C 95.590 147.619,95.692 147.874,95.692 148.186 C 95.692 148.498,95.789 148.753,95.908 148.753 C 96.027 148.753,96.192 149.110,96.273 149.546 C 96.355 149.983,96.513 150.340,96.624 150.340 C 96.735 150.340,96.825 150.493,96.825 150.680 C 96.825 150.867,96.927 151.020,97.052 151.020 C 97.177 151.020,97.279 151.224,97.279 151.474 C 97.279 151.723,97.381 151.927,97.506 151.927 C 97.630 151.927,97.732 152.131,97.732 152.379 C 97.732 152.938,98.456 154.649,98.693 154.649 C 98.788 154.649,98.866 154.802,98.866 154.989 C 98.866 155.176,98.957 155.329,99.068 155.329 C 99.179 155.329,99.336 155.686,99.418 156.122 C 99.500 156.559,99.664 156.916,99.784 156.916 C 99.903 156.916,100.000 157.120,100.000 157.370 C 100.000 157.619,100.080 157.823,100.177 157.823 C 100.274 157.823,100.552 158.333,100.794 158.957 C 101.036 159.580,101.313 160.091,101.410 160.091 C 101.508 160.091,101.587 160.231,101.587 160.403 C 101.587 160.575,101.740 160.842,101.927 160.998 C 102.115 161.153,102.268 161.472,102.268 161.706 C 102.268 161.940,102.370 162.132,102.494 162.132 C 102.619 162.132,102.721 162.285,102.721 162.472 C 102.721 162.659,102.823 162.812,102.948 162.812 C 103.073 162.812,103.175 163.016,103.175 163.265 C 103.175 163.515,103.269 163.719,103.383 163.719 C 103.498 163.719,103.656 164.011,103.735 164.368 C 103.813 164.726,104.076 165.232,104.320 165.493 C 104.563 165.754,104.762 166.074,104.762 166.204 C 104.762 166.334,104.856 166.440,104.971 166.440 C 105.085 166.440,105.244 166.732,105.322 167.090 C 105.401 167.447,105.638 167.934,105.850 168.173 C 106.062 168.411,106.430 168.986,106.668 169.451 C 106.906 169.915,107.187 170.295,107.292 170.295 C 107.397 170.295,107.483 170.499,107.483 170.748 C 107.483 170.998,107.574 171.202,107.685 171.202 C 107.796 171.202,107.951 171.457,108.030 171.769 C 108.108 172.080,108.272 172.336,108.394 172.336 C 108.517 172.336,108.617 172.466,108.617 172.626 C 108.617 172.785,108.821 173.063,109.070 173.243 C 109.320 173.422,109.524 173.754,109.524 173.980 C 109.524 174.206,109.677 174.449,109.864 174.521 C 110.051 174.593,110.204 174.807,110.204 174.998 C 110.204 175.188,110.394 175.509,110.625 175.710 C 110.857 175.912,111.119 176.307,111.207 176.587 C 111.296 176.868,111.464 177.098,111.580 177.098 C 111.696 177.098,111.791 177.251,111.791 177.438 C 111.791 177.625,111.887 177.778,112.003 177.778 C 112.119 177.778,112.287 178.007,112.375 178.288 C 112.464 178.569,112.726 178.963,112.958 179.165 C 113.189 179.367,113.379 179.623,113.379 179.734 C 113.379 179.845,113.634 180.212,113.946 180.548 C 114.257 180.884,114.512 181.247,114.512 181.355 C 114.512 181.463,114.768 181.773,115.079 182.044 C 115.391 182.315,115.646 182.649,115.646 182.787 C 115.646 182.925,115.952 183.324,116.327 183.673 C 116.701 184.023,117.007 184.408,117.007 184.530 C 117.007 184.651,117.364 185.140,117.800 185.617 C 118.237 186.093,118.594 186.560,118.594 186.655 C 118.594 186.749,119.104 187.337,119.728 187.960 C 120.351 188.584,120.862 189.154,120.862 189.228 C 120.862 189.378,121.279 189.906,121.723 190.317 C 122.075 190.643,122.908 191.473,123.293 191.883 C 123.445 192.044,123.672 192.279,123.797 192.404 C 123.922 192.528,124.277 192.885,124.586 193.197 C 124.895 193.509,125.281 193.889,125.443 194.041 C 125.604 194.194,125.853 194.435,125.995 194.577 C 126.137 194.719,126.508 195.090,126.820 195.402 C 127.132 195.714,127.489 196.071,127.614 196.196 C 127.739 196.320,128.082 196.661,128.376 196.953 C 128.671 197.245,129.034 197.616,129.184 197.778 C 129.604 198.232,130.124 198.639,130.283 198.639 C 130.362 198.639,130.872 199.099,131.418 199.660 C 131.963 200.221,132.519 200.680,132.652 200.680 C 132.786 200.680,134.626 202.415,136.741 204.535 C 138.856 206.655,140.691 208.390,140.819 208.390 C 140.946 208.390,141.491 208.849,142.028 209.410 C 142.566 209.972,143.079 210.431,143.169 210.431 C 143.258 210.431,143.577 210.660,143.877 210.941 C 144.177 211.222,144.555 211.553,144.717 211.678 C 146.006 212.670,146.710 213.152,146.870 213.152 C 146.973 213.152,147.249 213.407,147.484 213.719 C 147.718 214.031,148.077 214.286,148.281 214.286 C 148.485 214.286,148.800 214.490,148.980 214.739 C 149.159 214.989,149.437 215.193,149.597 215.193 C 149.756 215.193,149.887 215.288,149.887 215.404 C 149.887 215.521,150.116 215.688,150.397 215.777 C 150.677 215.865,151.060 216.110,151.247 216.321 C 151.434 216.532,152.021 216.894,152.551 217.126 C 153.081 217.358,153.515 217.630,153.515 217.731 C 153.515 217.831,153.668 217.914,153.855 217.914 C 154.042 217.914,154.195 218.005,154.195 218.115 C 154.195 218.226,154.552 218.384,154.989 218.466 C 155.425 218.548,155.782 218.712,155.782 218.831 C 155.782 218.950,155.962 219.048,156.181 219.048 C 156.401 219.048,156.702 219.243,156.851 219.481 C 157.000 219.719,157.431 219.982,157.810 220.065 C 158.188 220.148,158.556 220.310,158.628 220.426 C 158.699 220.541,158.955 220.635,159.197 220.635 C 159.439 220.635,159.637 220.737,159.637 220.862 C 159.637 220.986,159.841 221.088,160.091 221.088 C 160.340 221.088,160.544 221.186,160.544 221.305 C 160.544 221.424,160.901 221.588,161.338 221.670 C 161.774 221.752,162.132 221.910,162.132 222.021 C 162.132 222.132,162.387 222.222,162.698 222.222 C 163.010 222.222,163.265 222.324,163.265 222.449 C 163.265 222.574,163.463 222.676,163.705 222.676 C 163.948 222.676,164.205 222.772,164.278 222.889 C 164.350 223.007,164.866 223.172,165.425 223.255 C 165.983 223.339,166.440 223.498,166.440 223.609 C 166.440 223.719,166.695 223.810,167.007 223.810 C 167.319 223.810,167.574 223.902,167.574 224.014 C 167.574 224.126,168.186 224.290,168.934 224.376 C 169.683 224.463,170.295 224.626,170.295 224.739 C 170.295 224.851,170.652 224.943,171.088 224.943 C 171.525 224.943,171.882 225.045,171.882 225.170 C 171.882 225.295,172.233 225.397,172.662 225.397 C 173.092 225.397,173.500 225.490,173.570 225.603 C 173.640 225.717,174.590 225.883,175.681 225.973 C 176.772 226.063,177.737 226.250,177.826 226.390 C 178.058 226.755,198.363 226.750,198.591 226.385 C 198.681 226.241,199.730 226.053,200.967 225.961 C 202.185 225.870,203.237 225.706,203.305 225.596 C 203.373 225.487,203.830 225.397,204.322 225.397 C 204.813 225.397,205.215 225.295,205.215 225.170 C 205.215 225.045,205.573 224.943,206.009 224.943 C 206.446 224.943,206.803 224.852,206.803 224.740 C 206.803 224.628,207.517 224.464,208.390 224.376 C 209.263 224.289,209.977 224.125,209.977 224.013 C 209.977 223.901,210.232 223.810,210.544 223.810 C 210.856 223.810,211.111 223.721,211.111 223.612 C 211.111 223.503,211.617 223.347,212.236 223.265 C 212.854 223.183,213.421 223.017,213.496 222.896 C 213.571 222.775,213.881 222.676,214.186 222.676 C 214.490 222.676,214.739 222.574,214.739 222.449 C 214.739 222.324,214.994 222.222,215.306 222.222 C 215.618 222.222,215.873 222.132,215.873 222.021 C 215.873 221.911,216.330 221.752,216.888 221.668 C 217.446 221.584,217.963 221.420,218.035 221.302 C 218.108 221.185,218.365 221.088,218.607 221.088 C 218.850 221.088,219.048 220.986,219.048 220.862 C 219.048 220.737,219.252 220.635,219.501 220.635 C 219.751 220.635,219.955 220.544,219.955 220.433 C 219.955 220.322,220.186 220.172,220.469 220.101 C 220.752 220.030,221.207 219.764,221.480 219.510 C 221.753 219.256,222.134 219.048,222.326 219.048 C 222.518 219.048,222.676 218.946,222.676 218.821 C 222.676 218.696,222.788 218.594,222.925 218.594 C 223.205 218.594,224.768 217.896,224.943 217.693 C 225.006 217.620,225.490 217.370,226.020 217.136 C 226.550 216.902,226.984 216.625,226.984 216.519 C 226.984 216.413,227.137 216.327,227.324 216.327 C 227.511 216.327,227.664 216.236,227.664 216.125 C 227.664 216.014,228.022 215.856,228.458 215.775 C 228.895 215.693,229.252 215.553,229.252 215.465 C 229.252 215.376,229.583 215.157,229.989 214.979 C 230.394 214.800,230.860 214.520,231.025 214.356 C 231.190 214.193,231.471 214.059,231.649 214.059 C 231.827 214.059,231.973 213.957,231.973 213.832 C 231.973 213.707,232.170 213.605,232.411 213.605 C 232.652 213.605,232.914 213.402,232.993 213.152 C 233.072 212.903,233.387 212.637,233.694 212.560 C 234.000 212.483,234.376 212.251,234.529 212.045 C 234.682 211.839,235.108 211.478,235.476 211.242 C 235.844 211.007,236.384 210.575,236.677 210.283 C 236.969 209.990,237.309 209.751,237.432 209.751 C 237.555 209.751,238.309 209.087,239.107 208.277 C 239.906 207.466,240.646 206.803,240.752 206.803 C 240.993 206.803,243.311 204.472,243.311 204.230 C 243.311 204.132,243.872 203.500,244.558 202.825 C 245.244 202.150,245.805 201.497,245.805 201.373 C 245.805 201.250,246.086 200.856,246.429 200.497 C 247.414 199.467,248.073 198.566,248.073 198.250 C 248.073 198.090,248.175 197.959,248.299 197.959 C 248.424 197.959,248.526 197.755,248.526 197.506 C 248.526 197.256,248.626 197.052,248.749 197.052 C 248.871 197.052,249.035 196.797,249.113 196.485 C 249.191 196.173,249.346 195.918,249.458 195.918 C 249.569 195.918,249.660 195.714,249.660 195.465 C 249.660 195.215,249.762 195.011,249.887 195.011 C 250.011 195.011,250.113 194.858,250.113 194.671 C 250.113 194.484,250.213 194.331,250.336 194.331 C 250.458 194.331,250.622 194.076,250.701 193.764 C 250.779 193.452,250.934 193.197,251.045 193.197 C 251.156 193.197,251.247 192.993,251.247 192.744 C 251.247 192.494,251.325 192.290,251.420 192.290 C 251.603 192.290,252.381 190.635,252.381 190.248 C 252.381 190.124,252.483 190.023,252.608 190.023 C 252.732 190.023,252.834 189.768,252.834 189.456 C 252.834 189.144,252.937 188.889,253.061 188.889 C 253.186 188.889,253.288 188.691,253.288 188.449 C 253.288 188.207,253.384 187.949,253.502 187.877 C 253.619 187.804,253.784 187.288,253.868 186.729 C 253.951 186.171,254.110 185.714,254.221 185.714 C 254.331 185.714,254.422 185.480,254.422 185.193 C 254.422 184.906,254.523 184.570,254.647 184.446 C 254.771 184.322,254.939 183.587,255.020 182.813 C 255.100 182.039,255.254 181.406,255.361 181.406 C 255.468 181.406,255.556 181.055,255.556 180.626 C 255.556 180.196,255.658 179.782,255.782 179.705 C 255.907 179.628,256.009 178.908,256.009 178.105 C 256.009 177.282,256.108 176.644,256.236 176.644 C 256.376 176.644,256.463 175.435,256.463 173.469 C 256.463 171.504,256.376 170.295,256.236 170.295 C 256.111 170.295,256.009 170.142,256.009 169.955 C 256.009 169.768,255.907 169.615,255.782 169.615 C 255.658 169.615,255.556 169.410,255.556 169.161 C 255.556 168.912,255.454 168.707,255.329 168.707 C 255.204 168.707,255.102 168.595,255.102 168.458 C 255.102 168.101,254.378 166.607,254.034 166.254 C 253.873 166.089,253.741 165.831,253.741 165.680 C 253.741 165.529,253.537 165.259,253.288 165.079 C 253.039 164.900,252.834 164.669,252.834 164.566 C 252.834 164.220,251.329 162.585,251.010 162.585 C 250.891 162.585,250.794 162.425,250.794 162.229 C 250.794 162.033,248.957 160.039,246.712 157.798 C 244.467 155.557,242.630 153.615,242.630 153.481 C 242.630 153.134,238.854 149.489,238.317 149.318 C 238.071 149.240,237.868 149.081,237.868 148.964 C 237.868 148.848,237.715 148.753,237.528 148.753 C 237.341 148.753,237.188 148.662,237.188 148.551 C 237.188 148.440,236.831 148.283,236.395 148.201 C 235.958 148.119,235.601 147.955,235.601 147.836 C 235.601 147.716,235.397 147.619,235.147 147.619 C 234.898 147.619,234.694 147.517,234.694 147.392 C 234.694 147.268,234.447 147.166,234.146 147.166 C 233.844 147.166,233.555 147.038,233.503 146.882 C 233.366 146.472,222.869 146.472,222.732 146.882 C 222.680 147.038,222.289 147.166,221.863 147.166 C 221.437 147.166,221.088 147.268,221.088 147.392 C 221.088 147.517,220.884 147.619,220.635 147.619 C 220.385 147.619,220.181 147.708,220.181 147.817 C 220.181 147.926,219.773 148.080,219.274 148.160 C 218.776 148.239,218.367 148.406,218.367 148.529 C 218.367 148.652,218.163 148.753,217.914 148.753 C 217.664 148.753,217.460 148.844,217.460 148.955 C 217.460 149.066,217.205 149.221,216.893 149.299 C 216.582 149.378,216.327 149.542,216.327 149.664 C 216.327 149.787,216.174 149.887,215.988 149.887 C 215.802 149.887,215.523 150.091,215.367 150.340 C 215.211 150.590,214.901 150.794,214.678 150.794 C 214.454 150.794,214.213 150.947,214.141 151.134 C 214.069 151.321,213.861 151.474,213.679 151.474 C 213.497 151.474,213.011 151.831,212.600 152.268 C 212.188 152.704,211.754 153.061,211.635 153.061 C 211.517 153.061,211.204 153.291,210.941 153.571 C 210.678 153.852,210.328 154.195,210.163 154.333 C 209.720 154.704,208.844 155.764,208.844 155.928 C 208.844 156.006,208.588 156.307,208.277 156.596 C 207.965 156.885,207.710 157.257,207.710 157.422 C 207.710 157.588,207.506 157.870,207.257 158.049 C 207.008 158.229,206.742 158.710,206.665 159.120 C 206.588 159.529,206.435 159.864,206.324 159.864 C 206.213 159.864,206.122 160.119,206.122 160.431 C 206.122 160.743,206.020 160.998,205.896 160.998 C 205.771 160.998,205.669 161.244,205.669 161.546 C 205.669 161.847,205.541 162.136,205.385 162.188 C 204.979 162.324,204.979 170.603,205.385 171.009 C 205.541 171.165,205.669 171.527,205.669 171.814 C 205.669 172.101,205.771 172.336,205.896 172.336 C 206.020 172.336,206.122 172.591,206.122 172.902 C 206.122 173.214,206.224 173.469,206.349 173.469 C 206.474 173.469,206.576 173.673,206.576 173.921 C 206.576 174.480,207.300 176.190,207.536 176.190 C 208.048 176.190,207.612 177.079,206.916 177.453 C 206.480 177.689,206.122 177.960,206.122 178.056 C 206.122 178.152,205.918 178.231,205.669 178.231 C 205.420 178.231,205.215 178.329,205.215 178.447 C 205.215 178.566,204.833 178.842,204.365 179.059 C 203.897 179.277,203.350 179.639,203.148 179.863 C 202.947 180.088,202.462 180.335,202.071 180.413 C 201.680 180.492,201.361 180.645,201.361 180.754 C 201.361 180.863,201.207 180.952,201.020 180.952 C 200.833 180.952,200.680 181.054,200.680 181.179 C 200.680 181.304,200.476 181.406,200.227 181.406 C 199.977 181.406,199.773 181.503,199.773 181.622 C 199.773 181.741,199.416 181.906,198.980 181.988 C 198.543 182.070,198.186 182.227,198.186 182.338 C 198.186 182.449,197.931 182.540,197.619 182.540 C 197.307 182.540,197.052 182.617,197.052 182.711 C 197.052 182.947,195.978 183.388,194.952 183.572 C 194.483 183.656,194.043 183.815,193.975 183.926 C 193.907 184.037,193.602 184.127,193.297 184.127 C 192.993 184.127,192.744 184.218,192.744 184.329 C 192.744 184.512,191.117 184.863,188.776 185.183 C 188.277 185.251,187.772 185.399,187.653 185.511 C 187.535 185.623,186.546 185.714,185.456 185.714 C 184.365 185.714,183.410 185.816,183.333 185.941 C 183.256 186.066,182.695 186.168,182.086 186.168 C 181.477 186.168,180.916 186.066,180.839 185.941 C 180.762 185.816,180.150 185.714,179.478 185.714 C 178.807 185.714,178.195 185.612,178.118 185.488 C 178.041 185.363,177.576 185.261,177.084 185.261 C 176.593 185.261,176.190 185.168,176.190 185.055 C 176.190 184.942,175.680 184.780,175.057 184.694 C 174.433 184.608,173.923 184.445,173.923 184.332 C 173.923 184.219,173.668 184.127,173.356 184.127 C 173.044 184.127,172.789 184.025,172.789 183.900 C 172.789 183.776,172.605 183.673,172.379 183.673 C 172.153 183.673,171.771 183.524,171.529 183.341 C 171.287 183.157,170.910 183.004,170.692 183.000 C 170.473 182.996,170.295 182.891,170.295 182.766 C 170.295 182.642,170.142 182.540,169.955 182.540 C 169.768 182.540,169.615 182.438,169.615 182.313 C 169.615 182.188,169.418 182.086,169.177 182.086 C 168.937 182.086,168.587 181.933,168.400 181.746 C 168.213 181.559,167.950 181.406,167.817 181.406 C 167.683 181.406,167.574 181.304,167.574 181.179 C 167.574 181.054,167.445 180.952,167.288 180.952 C 167.131 180.952,166.727 180.697,166.391 180.385 C 166.055 180.074,165.719 179.819,165.646 179.819 C 165.572 179.819,165.257 179.563,164.945 179.252 C 164.634 178.940,164.307 178.685,164.219 178.685 C 163.943 178.684,162.812 177.623,162.812 177.365 C 162.812 177.229,162.557 176.863,162.245 176.551 C 161.933 176.239,161.678 175.878,161.678 175.747 C 161.678 175.617,161.583 175.510,161.467 175.510 C 161.350 175.510,161.183 175.281,161.094 175.000 C 161.005 174.719,160.743 174.325,160.512 174.123 C 160.280 173.921,160.091 173.601,160.091 173.410 C 160.091 173.220,159.938 173.006,159.751 172.934 C 159.563 172.862,159.410 172.596,159.410 172.343 C 159.410 172.089,159.308 171.882,159.184 171.882 C 159.059 171.882,158.957 171.767,158.957 171.625 C 158.957 171.484,158.767 171.203,158.536 171.002 C 158.304 170.800,158.042 170.405,157.954 170.125 C 157.865 169.844,157.697 169.615,157.581 169.615 C 157.465 169.615,157.370 169.410,157.370 169.161 C 157.370 168.912,157.279 168.707,157.167 168.707 C 157.056 168.707,156.896 168.433,156.812 168.098 C 156.656 167.475,155.829 166.161,155.507 166.024 C 155.409 165.983,155.329 165.856,155.329 165.742 C 155.329 165.369,154.545 163.719,154.368 163.719 C 154.273 163.719,154.195 163.515,154.195 163.265 C 154.195 163.016,154.101 162.812,153.986 162.812 C 153.871 162.812,153.710 162.506,153.628 162.132 C 153.546 161.757,153.385 161.451,153.270 161.451 C 153.155 161.451,153.061 161.247,153.061 160.998 C 153.061 160.748,152.959 160.544,152.834 160.544 C 152.710 160.544,152.608 160.391,152.608 160.204 C 152.608 160.017,152.517 159.864,152.406 159.864 C 152.295 159.864,152.138 159.507,152.056 159.070 C 151.974 158.634,151.809 158.277,151.690 158.277 C 151.571 158.277,151.474 158.073,151.474 157.823 C 151.474 157.574,151.372 157.370,151.247 157.370 C 151.122 157.370,151.020 157.268,151.020 157.144 C 151.020 156.757,150.242 155.102,150.060 155.102 C 149.965 155.102,149.887 154.898,149.887 154.649 C 149.887 154.399,149.798 154.195,149.689 154.195 C 149.580 154.195,149.426 153.787,149.346 153.288 C 149.266 152.789,149.100 152.381,148.977 152.381 C 148.854 152.381,148.753 152.177,148.753 151.927 C 148.753 151.678,148.651 151.474,148.526 151.474 C 148.401 151.474,148.299 151.321,148.299 151.134 C 148.299 150.947,148.209 150.794,148.098 150.794 C 147.988 150.794,147.828 150.334,147.744 149.773 C 147.660 149.212,147.495 148.753,147.378 148.753 C 147.261 148.753,147.166 148.498,147.166 148.186 C 147.166 147.874,147.063 147.619,146.939 147.619 C 146.814 147.619,146.712 147.415,146.712 147.166 C 146.712 146.916,146.611 146.712,146.488 146.712 C 146.365 146.712,146.199 146.304,146.119 145.805 C 146.039 145.306,145.885 144.898,145.776 144.898 C 145.667 144.898,145.578 144.694,145.578 144.444 C 145.578 144.195,145.489 143.991,145.380 143.991 C 145.272 143.991,145.117 143.583,145.038 143.084 C 144.958 142.585,144.792 142.177,144.669 142.177 C 144.545 142.177,144.444 141.871,144.444 141.497 C 144.444 141.122,144.342 140.816,144.218 140.816 C 144.093 140.816,143.991 140.561,143.991 140.249 C 143.991 139.938,143.890 139.683,143.767 139.683 C 143.644 139.683,143.477 139.272,143.397 138.770 C 143.317 138.269,143.162 137.804,143.054 137.737 C 142.946 137.670,142.857 137.366,142.857 137.061 C 142.857 136.757,142.755 136.508,142.630 136.508 C 142.506 136.508,142.404 136.253,142.404 135.941 C 142.404 135.629,142.311 135.374,142.198 135.374 C 142.085 135.374,141.922 134.864,141.837 134.240 C 141.751 133.617,141.588 133.107,141.475 133.107 C 141.362 133.107,141.270 132.851,141.270 132.540 C 141.270 132.228,141.168 131.973,141.043 131.973 C 140.918 131.973,140.816 131.667,140.816 131.293 C 140.816 130.918,140.724 130.612,140.611 130.612 C 140.498 130.612,140.335 130.102,140.249 129.478 C 140.164 128.855,140.001 128.345,139.888 128.345 C 139.775 128.345,139.683 128.090,139.683 127.778 C 139.683 127.466,139.590 127.211,139.477 127.211 C 139.364 127.211,139.201 126.701,139.116 126.077 C 139.030 125.454,138.867 124.887,138.754 124.817 C 138.641 124.747,138.549 124.396,138.549 124.036 C 138.549 123.677,138.447 123.320,138.322 123.243 C 138.197 123.166,138.095 122.853,138.095 122.549 C 138.095 122.245,138.001 121.995,137.885 121.995 C 137.769 121.995,137.604 121.433,137.518 120.745 C 137.432 120.058,137.272 119.439,137.162 119.371 C 137.052 119.303,136.961 118.999,136.961 118.694 C 136.961 118.390,136.859 118.141,136.735 118.141 C 136.610 118.141,136.508 117.783,136.508 117.347 C 136.508 116.910,136.411 116.553,136.292 116.553 C 136.174 116.553,136.008 115.941,135.923 115.193 C 135.838 114.444,135.680 113.832,135.572 113.832 C 135.463 113.832,135.374 113.475,135.374 113.039 C 135.374 112.602,135.272 112.245,135.147 112.245 C 135.023 112.245,134.921 111.990,134.921 111.678 C 134.921 111.366,134.832 111.111,134.723 111.111 C 134.615 111.111,134.454 110.295,134.367 109.297 C 134.280 108.299,134.114 107.483,133.998 107.483 C 133.882 107.483,133.787 107.126,133.787 106.689 C 133.787 106.253,133.697 105.896,133.587 105.896 C 133.477 105.896,133.315 105.130,133.227 104.195 C 133.140 103.260,132.975 102.494,132.860 102.494 C 132.746 102.494,132.653 102.137,132.653 101.701 C 132.653 101.264,132.551 100.907,132.426 100.907 C 132.302 100.907,132.200 100.448,132.200 99.887 C 132.200 99.325,132.108 98.866,131.996 98.866 C 131.884 98.866,131.720 98.152,131.633 97.279 C 131.545 96.406,131.382 95.692,131.270 95.692 C 131.157 95.692,131.066 95.289,131.066 94.798 C 131.066 94.306,130.964 93.841,130.839 93.764 C 130.714 93.687,130.612 93.281,130.612 92.863 C 130.612 92.444,130.513 92.067,130.392 92.026 C 130.270 91.984,130.103 91.210,130.019 90.306 C 129.935 89.402,129.779 88.662,129.673 88.662 C 129.566 88.662,129.478 88.305,129.478 87.868 C 129.478 87.432,129.376 87.075,129.252 87.075 C 129.127 87.075,129.025 86.718,129.025 86.281 C 129.025 85.845,128.938 85.488,128.831 85.488 C 128.724 85.488,128.568 84.750,128.484 83.848 C 128.400 82.947,128.233 82.110,128.112 81.989 C 127.990 81.868,127.891 81.432,127.891 81.020 C 127.891 80.609,127.802 80.272,127.694 80.272 C 127.585 80.272,127.426 79.560,127.340 78.690 C 127.255 77.820,127.088 77.049,126.971 76.976 C 126.853 76.903,126.757 76.493,126.757 76.064 C 126.757 75.635,126.655 75.283,126.531 75.283 C 126.406 75.283,126.304 74.824,126.304 74.263 C 126.304 73.702,126.214 73.243,126.104 73.243 C 125.993 73.243,125.832 72.580,125.746 71.771 C 125.659 70.962,125.494 70.241,125.379 70.170 C 125.264 70.099,125.170 69.639,125.170 69.148 C 125.170 68.656,125.068 68.254,124.943 68.254 C 124.819 68.254,124.717 67.897,124.717 67.460 C 124.717 67.024,124.623 66.667,124.509 66.667 C 124.395 66.667,124.230 65.900,124.142 64.963 C 124.054 64.026,123.892 63.203,123.783 63.135 C 123.673 63.067,123.583 62.661,123.583 62.232 C 123.583 61.802,123.491 61.451,123.379 61.451 C 123.267 61.451,123.104 60.737,123.016 59.863 C 122.928 58.990,122.765 58.218,122.653 58.149 C 122.541 58.080,122.449 57.672,122.449 57.243 C 122.449 56.814,122.347 56.463,122.222 56.463 C 122.098 56.463,121.995 56.105,121.995 55.669 C 121.995 55.232,121.908 54.875,121.801 54.875 C 121.694 54.875,121.539 54.138,121.455 53.236 C 121.371 52.335,121.203 51.498,121.082 51.377 C 120.961 51.256,120.862 50.820,120.862 50.408 C 120.862 49.997,120.760 49.660,120.635 49.660 C 120.510 49.660,120.408 49.252,120.408 48.753 C 120.408 48.254,120.316 47.846,120.204 47.846 C 120.092 47.846,119.929 47.132,119.841 46.259 C 119.754 45.385,119.590 44.671,119.478 44.671 C 119.366 44.671,119.274 44.212,119.274 43.651 C 119.274 43.090,119.172 42.630,119.048 42.630 C 118.923 42.630,118.821 42.273,118.821 41.837 C 118.821 41.400,118.728 41.043,118.613 41.043 C 118.499 41.043,118.334 40.278,118.247 39.342 C 118.159 38.407,117.997 37.642,117.887 37.642 C 117.777 37.642,117.687 37.285,117.687 36.848 C 117.687 36.412,117.602 36.054,117.497 36.054 C 117.330 36.054,117.196 35.376,116.635 31.689 C 116.564 31.222,116.414 30.839,116.303 30.839 C 116.191 30.839,116.100 30.482,116.100 30.045 C 116.100 29.609,116.010 29.252,115.900 29.252 C 115.790 29.252,115.628 28.486,115.540 27.551 C 115.453 26.616,115.287 25.850,115.173 25.850 C 115.059 25.850,114.966 25.493,114.966 25.057 C 114.966 24.620,114.864 24.263,114.739 24.263 C 114.615 24.263,114.512 23.804,114.512 23.243 C 114.512 22.681,114.410 22.222,114.286 22.222 C 114.161 22.222,114.059 21.972,114.059 21.666 C 114.059 21.360,113.804 20.854,113.492 20.542 C 113.180 20.230,112.925 19.915,112.925 19.842 C 112.925 19.690,112.499 19.155,112.059 18.753 C 111.895 18.603,111.537 18.237,111.265 17.938 C 110.993 17.640,110.643 17.282,110.486 17.144 C 110.330 17.006,109.718 16.402,109.126 15.802 C 108.534 15.202,107.917 14.589,107.756 14.441 C 107.394 14.111,106.558 13.277,106.190 12.879 C 106.040 12.717,105.785 12.472,105.623 12.334 C 105.085 11.875,104.308 10.884,104.308 10.656 C 104.308 10.532,104.232 10.431,104.138 10.430 C 104.045 10.430,103.662 9.973,103.288 9.415 C 102.914 8.857,102.480 8.398,102.324 8.395 C 102.168 8.392,101.644 7.982,101.160 7.483 C 100.676 6.984,100.155 6.576,100.002 6.576 C 99.850 6.576,99.529 6.326,99.289 6.021 C 99.049 5.716,98.498 5.339,98.066 5.182 C 97.633 5.026,97.279 4.816,97.279 4.716 C 97.279 4.617,97.075 4.535,96.825 4.535 C 96.576 4.535,96.372 4.433,96.372 4.308 C 96.372 4.184,96.137 4.082,95.850 4.082 C 95.563 4.082,95.214 3.967,95.074 3.826 C 94.933 3.686,93.918 3.486,92.817 3.382 C 91.717 3.278,90.434 3.127,89.966 3.046 C 89.406 2.949,89.116 2.984,89.116 3.150 M380.839 4.557 C 383.828 4.972,385.826 6.328,386.378 8.317 C 386.691 9.443,386.692 16.406,386.379 18.341 C 386.246 19.166,385.982 20.811,385.793 21.995 C 385.604 23.180,385.362 24.609,385.254 25.170 C 384.986 26.568,384.728 29.220,384.780 30.045 C 384.803 30.420,384.659 31.797,384.459 33.107 C 384.260 34.416,384.038 35.986,383.967 36.595 C 383.507 40.515,380.227 43.471,375.624 44.117 C 373.827 44.369,373.784 44.420,373.606 46.532 C 373.313 50.015,372.919 53.014,371.885 59.637 C 371.758 60.448,371.498 62.336,371.307 63.832 C 371.115 65.329,370.864 67.166,370.749 67.914 C 370.289 70.887,370.050 72.560,369.728 75.057 C 369.543 76.491,369.288 78.353,369.163 79.195 C 369.037 80.037,368.824 81.465,368.690 82.370 C 367.893 87.730,367.117 89.499,364.585 91.724 C 362.629 93.444,358.142 93.881,354.338 92.721 L 352.553 92.177 351.950 90.930 C 350.811 88.573,350.113 85.386,350.113 82.541 C 350.113 77.555,349.561 77.338,336.848 77.325 C 330.865 77.319,328.580 77.239,327.563 77.000 C 326.355 76.716,326.131 76.722,325.417 77.060 L 324.621 77.438 324.326 79.705 C 324.164 80.952,323.926 82.687,323.796 83.560 C 323.345 86.610,323.163 87.887,322.811 90.476 C 322.616 91.910,322.356 93.747,322.233 94.558 C 321.605 98.701,320.910 103.550,320.740 104.989 C 320.673 105.550,320.524 106.519,320.409 107.143 C 319.972 109.501,319.966 109.933,320.369 110.089 C 321.551 110.547,323.394 110.726,328.798 110.908 C 332.103 111.019,336.083 111.171,337.642 111.246 C 349.399 111.811,359.764 105.182,365.987 93.119 C 367.672 89.851,369.962 88.786,375.283 88.795 C 379.989 88.802,380.845 89.055,382.010 90.779 C 382.866 92.047,383.363 93.093,383.277 93.444 C 383.259 93.517,383.086 94.794,382.892 96.282 C 382.503 99.262,382.385 99.761,381.641 101.587 C 380.952 103.276,380.862 103.503,380.154 105.329 C 379.816 106.202,379.459 107.120,379.362 107.370 C 379.032 108.216,378.185 110.315,377.898 110.998 C 377.290 112.445,376.887 113.589,376.059 116.213 C 375.586 117.710,375.129 119.087,375.041 119.274 C 374.677 120.056,374.352 120.847,373.691 122.562 C 373.306 123.560,372.691 125.008,372.323 125.779 C 371.956 126.551,371.653 127.418,371.651 127.707 C 371.646 128.263,369.231 131.002,368.317 131.488 C 367.051 132.160,363.585 132.213,321.657 132.201 C 279.554 132.188,279.017 132.182,278.162 131.737 C 274.883 130.028,274.160 126.655,275.902 121.202 C 277.297 116.837,281.745 113.903,288.279 113.038 C 289.497 112.876,289.441 112.953,289.919 110.771 C 290.236 109.325,290.494 107.848,291.165 103.628 C 291.294 102.817,291.500 101.542,291.623 100.794 C 291.859 99.355,292.404 95.663,292.744 93.197 C 292.856 92.387,293.056 91.060,293.190 90.249 C 293.323 89.439,293.587 87.602,293.777 86.168 C 293.967 84.734,294.213 82.948,294.324 82.200 C 294.435 81.451,294.681 79.666,294.872 78.231 C 295.277 75.182,295.644 72.541,295.926 70.635 C 296.037 69.887,296.291 68.050,296.491 66.553 C 296.893 63.537,297.195 61.347,297.490 59.297 C 297.597 58.549,297.856 56.661,298.063 55.102 C 298.271 53.543,298.537 51.579,298.654 50.737 C 298.771 49.895,298.962 48.518,299.079 47.676 C 299.196 46.834,299.461 44.870,299.669 43.311 C 299.877 41.752,300.131 39.864,300.234 39.116 C 300.338 38.367,300.531 36.888,300.664 35.828 C 300.798 34.768,301.068 32.778,301.265 31.406 C 301.461 30.034,301.678 28.070,301.747 27.041 L 301.871 25.170 299.703 25.170 C 297.008 25.170,294.833 25.609,292.102 26.703 C 289.708 27.663,289.808 27.431,290.611 30.159 C 292.727 37.350,290.197 44.997,283.845 50.605 C 281.359 52.799,281.039 52.956,278.371 53.285 C 270.379 54.271,266.196 51.224,265.171 43.671 C 264.691 40.130,265.213 34.652,266.351 31.293 C 271.806 15.194,283.163 6.530,301.134 4.758 C 302.443 4.629,303.668 4.486,303.855 4.442 C 304.814 4.214,379.167 4.325,380.839 4.557 M248.753 7.797 C 249.314 7.976,250.171 8.293,250.657 8.500 L 251.541 8.878 251.400 12.772 C 251.232 17.378,250.897 23.726,250.573 28.458 C 250.445 30.329,250.236 33.390,250.109 35.261 C 249.982 37.132,249.778 39.938,249.656 41.497 C 249.533 43.056,249.300 46.168,249.137 48.413 C 248.666 54.891,247.548 56.689,243.084 58.152 C 242.398 58.377,241.602 58.650,241.316 58.759 C 239.421 59.480,234.483 58.818,233.239 57.676 C 231.611 56.182,231.146 54.952,230.597 50.680 C 230.378 48.984,230.278 48.498,229.657 46.145 C 225.814 31.582,216.370 26.291,201.020 30.100 C 196.038 31.336,193.797 32.449,189.947 35.596 C 182.453 41.724,177.806 49.290,174.831 60.204 C 173.592 64.753,173.179 66.708,172.294 72.222 C 171.585 76.641,172.014 87.874,173.111 93.632 C 174.305 99.899,181.544 109.006,187.357 111.555 C 189.262 112.390,189.392 112.438,190.703 112.778 C 193.752 113.569,194.492 113.651,197.509 113.537 C 203.649 113.304,208.756 111.836,215.760 108.293 L 218.481 106.916 218.642 104.875 C 219.034 99.924,223.073 93.195,226.828 91.236 C 230.030 89.566,235.533 89.726,239.799 91.613 C 242.889 92.980,244.796 100.006,243.554 105.454 C 242.659 109.384,242.385 109.888,239.488 112.943 C 228.114 124.935,216.860 131.205,201.247 134.247 C 195.341 135.398,182.869 135.287,177.211 134.033 C 164.623 131.243,154.388 124.477,148.168 114.835 C 147.492 113.787,146.939 112.887,146.939 112.836 C 146.939 112.784,146.603 112.145,146.192 111.416 C 140.956 102.125,138.558 87.622,140.159 74.943 C 140.718 70.520,141.075 68.340,141.719 65.420 C 141.829 64.921,142.085 63.747,142.288 62.812 C 142.491 61.876,142.739 60.856,142.839 60.544 C 143.089 59.764,143.422 58.637,143.878 57.029 C 144.090 56.281,144.347 55.465,144.449 55.215 C 144.551 54.966,145.112 53.488,145.695 51.931 C 153.519 31.030,171.384 15.565,195.465 8.846 C 196.026 8.689,196.944 8.427,197.506 8.264 C 200.081 7.514,201.064 7.455,209.751 7.531 L 218.481 7.607 223.356 9.036 C 229.307 10.779,229.271 10.769,230.952 11.220 C 231.701 11.421,232.670 11.689,233.107 11.817 C 234.934 12.352,234.902 12.358,236.016 11.297 C 239.740 7.751,244.501 6.443,248.753 7.797 M93.764 9.111 C 95.929 9.871,99.296 12.418,99.325 13.317 C 99.328 13.413,99.674 14.972,100.093 16.780 C 101.908 24.611,111.653 66.761,112.126 68.821 C 112.669 71.191,116.826 89.221,117.825 93.537 C 119.407 100.379,120.305 103.791,121.972 109.297 C 137.870 161.801,156.697 188.493,179.573 190.959 C 182.200 191.243,188.045 190.972,190.023 190.475 C 190.459 190.366,191.327 190.161,191.950 190.020 C 198.863 188.456,206.151 184.931,212.326 180.164 C 214.547 178.450,214.511 178.529,213.635 177.252 C 206.973 167.545,209.162 158.925,219.620 153.679 C 228.530 149.210,236.308 151.567,240.563 160.025 C 241.530 161.948,241.065 167.697,239.531 172.789 C 235.931 184.739,227.314 194.912,215.306 201.390 C 206.532 206.123,206.442 206.167,202.721 207.485 C 200.913 208.126,198.923 208.844,198.299 209.082 C 190.766 211.948,175.573 212.677,164.853 210.687 C 162.094 210.175,155.184 208.094,154.728 207.638 C 154.643 207.553,154.440 207.483,154.277 207.483 C 151.897 207.483,139.976 200.175,133.787 194.922 C 131.549 193.022,124.299 185.449,122.151 182.766 C 120.802 181.083,119.533 179.503,119.330 179.255 C 117.667 177.227,111.137 167.338,109.187 163.895 C 106.139 158.513,102.347 151.088,100.238 146.372 C 99.568 144.875,98.793 143.141,98.515 142.517 C 97.632 140.541,95.263 132.847,93.417 125.964 C 93.149 124.966,92.846 123.844,92.743 123.469 C 92.323 121.946,91.597 119.339,91.384 118.594 C 91.259 118.158,90.645 115.913,90.020 113.605 C 89.395 111.298,88.608 108.401,88.272 107.168 C 87.935 105.935,87.521 104.787,87.351 104.617 C 87.038 104.304,57.240 104.133,56.122 104.438 C 55.858 104.510,54.849 105.811,53.706 107.553 C 52.627 109.198,50.339 112.685,48.622 115.301 C 44.347 121.814,43.785 123.342,45.659 123.353 C 51.146 123.382,55.000 127.564,54.213 132.635 C 53.319 138.401,51.680 140.775,47.506 142.354 L 45.465 143.126 28.798 143.028 C 13.636 142.938,12.019 142.893,10.884 142.528 C 7.157 141.327,4.612 139.176,4.850 137.429 C 5.515 132.560,5.690 131.259,5.818 130.272 C 6.201 127.299,9.725 124.477,13.919 123.784 C 16.253 123.398,17.328 122.376,19.622 118.367 C 20.014 117.681,21.183 115.692,22.219 113.946 C 23.255 112.200,24.581 109.955,25.164 108.957 C 26.690 106.349,32.794 96.000,34.460 93.197 C 35.238 91.888,36.107 90.408,36.391 89.909 C 36.674 89.410,38.263 86.706,39.920 83.900 C 41.577 81.094,44.610 75.941,46.660 72.449 C 48.710 68.957,50.465 65.998,50.560 65.873 C 50.655 65.748,50.989 65.187,51.301 64.626 C 51.614 64.065,52.869 61.922,54.089 59.864 C 55.310 57.806,56.649 55.536,57.066 54.819 C 58.501 52.348,59.358 50.889,62.695 45.238 C 64.536 42.120,66.221 39.263,66.440 38.889 C 66.658 38.515,67.985 36.270,69.388 33.900 C 70.791 31.531,72.140 29.235,72.385 28.798 C 72.630 28.362,73.111 27.545,73.453 26.984 C 73.796 26.423,74.490 25.249,74.996 24.376 C 76.743 21.365,78.754 18.025,79.366 17.120 C 79.703 16.621,80.326 15.563,80.749 14.768 C 82.317 11.826,85.794 8.747,87.778 8.544 C 89.591 8.358,92.372 8.621,93.764 9.111 M332.264 26.587 C 331.898 27.063,331.103 31.118,330.608 35.034 C 330.071 39.291,329.312 44.747,329.016 46.485 C 328.768 47.942,328.349 51.265,328.183 53.089 C 328.031 54.762,327.634 54.660,334.751 54.778 C 338.149 54.835,341.442 54.942,342.067 55.017 C 342.714 55.094,344.133 55.001,345.355 54.801 C 346.538 54.608,348.271 54.384,349.206 54.304 C 352.730 54.003,352.933 53.834,354.661 49.773 C 354.767 49.524,355.058 48.637,355.307 47.803 C 356.389 44.174,357.580 41.777,358.701 40.973 C 360.313 39.815,362.553 38.797,364.072 38.530 C 366.020 38.188,366.044 38.161,366.027 36.361 C 366.006 34.087,365.274 31.225,364.139 28.970 C 363.540 27.781,362.367 27.350,357.570 26.553 C 355.319 26.179,332.554 26.210,332.264 26.587 M353.061 40.093 C 353.061 40.195,352.854 40.706,352.602 41.229 C 352.349 41.752,352.081 42.485,352.007 42.858 C 351.932 43.232,351.781 43.537,351.672 43.537 C 351.563 43.537,351.474 43.690,351.474 43.878 C 351.474 44.065,351.382 44.218,351.270 44.218 C 351.158 44.218,350.995 44.932,350.907 45.805 C 350.819 46.678,350.656 47.392,350.544 47.392 C 350.432 47.392,350.340 47.545,350.340 47.732 C 350.340 47.920,350.238 48.073,350.113 48.073 C 349.989 48.073,349.887 48.368,349.887 48.729 C 349.887 49.563,349.616 49.660,347.274 49.660 C 346.231 49.660,345.315 49.762,345.238 49.887 C 345.161 50.011,344.711 50.113,344.238 50.113 L 343.377 50.113 343.488 48.923 C 343.550 48.268,343.688 47.698,343.795 47.657 C 343.903 47.615,343.991 46.978,343.991 46.240 C 343.991 45.496,344.092 44.898,344.218 44.898 C 344.349 44.898,344.444 44.166,344.444 43.157 C 344.444 42.199,344.567 41.077,344.717 40.662 L 344.989 39.909 349.025 39.909 C 351.245 39.909,353.061 39.992,353.061 40.093 M78.611 62.992 C 78.562 63.080,77.163 65.652,75.502 68.707 C 73.841 71.763,72.213 74.671,71.884 75.170 C 71.556 75.669,70.844 76.944,70.302 78.005 C 69.760 79.065,69.120 80.186,68.879 80.497 C 68.442 81.062,68.442 81.063,68.972 81.212 C 70.404 81.615,83.588 81.312,84.320 80.860 C 84.441 80.785,84.385 80.325,84.187 79.764 C 83.999 79.233,83.765 78.492,83.667 78.118 C 83.467 77.355,82.758 75.070,81.519 71.202 C 80.357 67.576,79.819 65.624,79.819 65.042 C 79.819 63.923,78.930 62.415,78.611 62.992 M346.842 91.254 C 347.020 91.432,347.166 91.687,347.166 91.821 C 347.166 91.954,347.254 92.063,347.362 92.063 C 347.471 92.063,347.617 92.495,347.688 93.022 C 347.759 93.550,347.925 94.017,348.058 94.062 C 348.191 94.106,348.299 94.264,348.299 94.413 C 348.299 94.562,348.503 94.832,348.753 95.011 C 349.002 95.191,349.206 95.509,349.206 95.717 C 349.206 96.121,349.648 96.372,350.359 96.372 C 350.598 96.372,350.794 96.470,350.794 96.590 C 350.794 96.711,351.559 97.572,352.494 98.504 C 353.430 99.437,354.195 100.308,354.195 100.440 C 354.195 100.715,353.375 101.587,353.116 101.587 C 353.021 101.587,352.668 101.842,352.332 102.154 C 351.996 102.466,351.570 102.721,351.386 102.721 C 351.202 102.721,350.990 102.914,350.915 103.151 C 350.830 103.417,350.479 103.637,349.992 103.728 C 349.560 103.809,349.206 103.973,349.206 104.092 C 349.206 104.211,349.002 104.308,348.753 104.308 C 348.503 104.308,348.299 104.410,348.299 104.535 C 348.299 104.660,348.146 104.762,347.959 104.762 C 347.772 104.762,347.619 104.854,347.619 104.967 C 347.619 105.080,347.109 105.243,346.486 105.329 C 345.862 105.415,345.295 105.577,345.225 105.690 C 345.155 105.803,344.804 105.896,344.444 105.896 C 344.085 105.896,343.728 105.998,343.651 106.122 C 343.574 106.247,343.006 106.349,342.390 106.349 C 341.774 106.349,341.270 106.451,341.270 106.576 C 341.270 106.716,340.136 106.803,338.322 106.803 L 335.374 106.803 335.374 105.896 C 335.374 105.397,335.465 104.989,335.576 104.989 C 335.687 104.989,335.851 103.764,335.941 102.268 C 336.031 100.771,336.195 99.546,336.306 99.546 C 336.417 99.546,336.508 99.036,336.508 98.413 C 336.508 97.789,336.610 97.279,336.735 97.279 C 336.860 97.279,336.961 96.679,336.961 95.932 C 336.961 95.191,337.063 94.522,337.188 94.444 C 337.313 94.367,337.415 93.864,337.415 93.326 C 337.415 92.787,337.479 92.028,337.557 91.638 L 337.698 90.930 342.108 90.930 C 345.627 90.930,346.583 90.995,346.842 91.254 " stroke="none" fill="#040404" fill-rule="evenodd"></path><path id="path1" d="M303.855 4.442 C 303.668 4.486,302.443 4.629,301.134 4.758 C 283.163 6.530,271.806 15.194,266.351 31.293 C 265.213 34.652,264.691 40.130,265.171 43.671 C 266.196 51.224,270.379 54.271,278.371 53.285 C 281.039 52.956,281.359 52.799,283.845 50.605 C 290.197 44.997,292.727 37.350,290.611 30.159 C 289.808 27.431,289.708 27.663,292.102 26.703 C 294.833 25.609,297.008 25.170,299.703 25.170 L 301.871 25.170 301.747 27.041 C 301.678 28.070,301.461 30.034,301.265 31.406 C 301.068 32.778,300.798 34.768,300.664 35.828 C 300.531 36.888,300.338 38.367,300.234 39.116 C 300.131 39.864,299.877 41.752,299.669 43.311 C 299.461 44.870,299.196 46.834,299.079 47.676 C 298.962 48.518,298.771 49.895,298.654 50.737 C 298.537 51.579,298.271 53.543,298.063 55.102 C 297.856 56.661,297.597 58.549,297.490 59.297 C 297.195 61.347,296.893 63.537,296.491 66.553 C 296.291 68.050,296.037 69.887,295.926 70.635 C 295.644 72.541,295.277 75.182,294.872 78.231 C 294.681 79.666,294.435 81.451,294.324 82.200 C 294.213 82.948,293.967 84.734,293.777 86.168 C 293.587 87.602,293.323 89.439,293.190 90.249 C 293.056 91.060,292.856 92.387,292.744 93.197 C 292.404 95.663,291.859 99.355,291.623 100.794 C 291.500 101.542,291.294 102.817,291.165 103.628 C 290.494 107.848,290.236 109.325,289.919 110.771 C 289.441 112.953,289.497 112.876,288.279 113.038 C 281.745 113.903,277.297 116.837,275.902 121.202 C 274.160 126.655,274.883 130.028,278.162 131.737 C 279.017 132.182,279.554 132.188,321.657 132.201 C 363.585 132.213,367.051 132.160,368.317 131.488 C 369.231 131.002,371.646 128.263,371.651 127.707 C 371.653 127.418,371.956 126.551,372.323 125.779 C 372.691 125.008,373.306 123.560,373.691 122.562 C 374.352 120.847,374.677 120.056,375.041 119.274 C 375.129 119.087,375.586 117.710,376.059 116.213 C 376.887 113.589,377.290 112.445,377.898 110.998 C 378.185 110.315,379.032 108.216,379.362 107.370 C 379.459 107.120,379.816 106.202,380.154 105.329 C 380.862 103.503,380.952 103.276,381.641 101.587 C 382.385 99.761,382.503 99.262,382.892 96.282 C 383.086 94.794,383.259 93.517,383.277 93.444 C 383.363 93.093,382.866 92.047,382.010 90.779 C 380.845 89.055,379.989 88.802,375.283 88.795 C 369.962 88.786,367.672 89.851,365.987 93.119 C 359.764 105.182,349.399 111.811,337.642 111.246 C 336.083 111.171,332.103 111.019,328.798 110.908 C 323.394 110.726,321.551 110.547,320.369 110.089 C 319.966 109.933,319.972 109.501,320.409 107.143 C 320.524 106.519,320.673 105.550,320.740 104.989 C 320.910 103.550,321.605 98.701,322.233 94.558 C 322.356 93.747,322.616 91.910,322.811 90.476 C 323.163 87.887,323.345 86.610,323.796 83.560 C 323.926 82.687,324.164 80.952,324.326 79.705 L 324.621 77.438 325.417 77.060 C 326.131 76.722,326.355 76.716,327.563 77.000 C 328.580 77.239,330.865 77.319,336.848 77.325 C 349.561 77.338,350.113 77.555,350.113 82.541 C 350.113 85.386,350.811 88.573,351.950 90.930 L 352.553 92.177 354.338 92.721 C 358.142 93.881,362.629 93.444,364.585 91.724 C 367.117 89.499,367.893 87.730,368.690 82.370 C 368.824 81.465,369.037 80.037,369.163 79.195 C 369.288 78.353,369.543 76.491,369.728 75.057 C 370.050 72.560,370.289 70.887,370.749 67.914 C 370.864 67.166,371.115 65.329,371.307 63.832 C 371.498 62.336,371.758 60.448,371.885 59.637 C 372.919 53.014,373.313 50.015,373.606 46.532 C 373.784 44.420,373.827 44.369,375.624 44.117 C 380.227 43.471,383.507 40.515,383.967 36.595 C 384.038 35.986,384.260 34.416,384.459 33.107 C 384.659 31.797,384.803 30.420,384.780 30.045 C 384.728 29.220,384.986 26.568,385.254 25.170 C 385.362 24.609,385.604 23.180,385.793 21.995 C 385.982 20.811,386.246 19.166,386.379 18.341 C 386.692 16.406,386.691 9.443,386.378 8.317 C 385.826 6.328,383.828 4.972,380.839 4.557 C 379.167 4.325,304.814 4.214,303.855 4.442 M243.084 7.471 C 240.496 7.938,238.290 9.132,236.016 11.297 C 234.902 12.358,234.934 12.352,233.107 11.817 C 232.670 11.689,231.701 11.421,230.952 11.220 C 229.271 10.769,229.307 10.779,223.356 9.036 L 218.481 7.607 209.751 7.531 C 201.064 7.455,200.081 7.514,197.506 8.264 C 196.944 8.427,196.026 8.689,195.465 8.846 C 171.384 15.565,153.519 31.030,145.695 51.931 C 145.112 53.488,144.551 54.966,144.449 55.215 C 144.347 55.465,144.090 56.281,143.878 57.029 C 143.422 58.637,143.089 59.764,142.839 60.544 C 142.739 60.856,142.491 61.876,142.288 62.812 C 142.085 63.747,141.829 64.921,141.719 65.420 C 141.075 68.340,140.718 70.520,140.159 74.943 C 139.268 82.001,139.302 85.157,140.353 92.630 C 141.277 99.204,143.696 106.988,146.192 111.416 C 146.603 112.145,146.939 112.784,146.939 112.836 C 146.939 113.111,149.585 116.970,150.758 118.404 C 154.830 123.385,159.679 127.178,165.533 129.961 C 169.613 131.901,173.139 133.130,177.211 134.033 C 182.869 135.287,195.341 135.398,201.247 134.247 C 211.301 132.288,217.886 129.690,225.811 124.554 C 232.624 120.139,241.566 111.742,242.622 108.765 C 244.796 102.644,244.421 97.767,241.419 93.116 C 239.815 90.630,234.257 89.402,229.435 90.468 C 224.114 91.645,219.167 98.248,218.642 104.875 L 218.481 106.916 215.760 108.293 C 208.756 111.836,203.649 113.304,197.509 113.537 C 194.492 113.651,193.752 113.569,190.703 112.778 C 189.392 112.438,189.262 112.390,187.357 111.555 C 181.544 109.006,174.305 99.899,173.111 93.632 C 172.014 87.874,171.585 76.641,172.294 72.222 C 173.179 66.708,173.592 64.753,174.831 60.204 C 177.806 49.290,182.453 41.724,189.947 35.596 C 193.797 32.449,196.038 31.336,201.020 30.100 C 216.370 26.291,225.814 31.582,229.657 46.145 C 230.278 48.498,230.378 48.984,230.597 50.680 C 231.146 54.952,231.611 56.182,233.239 57.676 C 234.483 58.818,239.421 59.480,241.316 58.759 C 241.602 58.650,242.398 58.377,243.084 58.152 C 247.548 56.689,248.666 54.891,249.137 48.413 C 249.300 46.168,249.533 43.056,249.656 41.497 C 249.778 39.938,249.982 37.132,250.109 35.261 C 250.236 33.390,250.445 30.329,250.573 28.458 C 250.897 23.726,251.232 17.378,251.400 12.772 L 251.541 8.878 250.657 8.500 C 248.256 7.475,245.296 7.072,243.084 7.471 M87.778 8.544 C 85.794 8.747,82.317 11.826,80.749 14.768 C 80.326 15.563,79.703 16.621,79.366 17.120 C 78.754 18.025,76.743 21.365,74.996 24.376 C 74.490 25.249,73.796 26.423,73.453 26.984 C 73.111 27.545,72.630 28.362,72.385 28.798 C 72.140 29.235,70.791 31.531,69.388 33.900 C 67.985 36.270,66.658 38.515,66.440 38.889 C 66.221 39.263,64.536 42.120,62.695 45.238 C 59.358 50.889,58.501 52.348,57.066 54.819 C 56.649 55.536,55.310 57.806,54.089 59.864 C 52.869 61.922,51.614 64.065,51.301 64.626 C 50.989 65.187,50.655 65.748,50.560 65.873 C 50.465 65.998,48.710 68.957,46.660 72.449 C 44.610 75.941,41.577 81.094,39.920 83.900 C 38.263 86.706,36.674 89.410,36.391 89.909 C 36.107 90.408,35.238 91.888,34.460 93.197 C 32.794 96.000,26.690 106.349,25.164 108.957 C 24.581 109.955,23.255 112.200,22.219 113.946 C 21.183 115.692,20.014 117.681,19.622 118.367 C 17.328 122.376,16.253 123.398,13.919 123.784 C 9.725 124.477,6.201 127.299,5.818 130.272 C 5.690 131.259,5.515 132.560,4.850 137.429 C 4.612 139.176,7.157 141.327,10.884 142.528 C 12.019 142.893,13.636 142.938,28.798 143.028 L 45.465 143.126 47.506 142.354 C 51.680 140.775,53.319 138.401,54.213 132.635 C 55.000 127.564,51.146 123.382,45.659 123.353 C 43.785 123.342,44.347 121.814,48.622 115.301 C 50.339 112.685,52.627 109.198,53.706 107.553 C 54.849 105.811,55.858 104.510,56.122 104.438 C 57.240 104.133,87.038 104.304,87.351 104.617 C 87.521 104.787,87.935 105.935,88.272 107.168 C 88.608 108.401,89.395 111.298,90.020 113.605 C 90.645 115.913,91.259 118.158,91.384 118.594 C 91.597 119.339,92.323 121.946,92.743 123.469 C 92.846 123.844,93.149 124.966,93.417 125.964 C 95.263 132.847,97.632 140.541,98.515 142.517 C 98.793 143.141,99.568 144.875,100.238 146.372 C 102.347 151.088,106.139 158.513,109.187 163.895 C 111.137 167.338,117.667 177.227,119.330 179.255 C 119.533 179.503,120.802 181.083,122.151 182.766 C 124.299 185.449,131.549 193.022,133.787 194.922 C 139.976 200.175,151.897 207.483,154.277 207.483 C 154.440 207.483,154.643 207.553,154.728 207.638 C 155.184 208.094,162.094 210.175,164.853 210.687 C 174.524 212.483,185.135 212.241,195.011 210.002 C 196.196 209.733,197.676 209.319,198.299 209.082 C 198.923 208.844,200.913 208.126,202.721 207.485 C 206.442 206.167,206.532 206.123,215.306 201.390 C 227.314 194.912,235.931 184.739,239.531 172.789 C 241.065 167.697,241.530 161.948,240.563 160.025 C 236.308 151.567,228.530 149.210,219.620 153.679 C 209.162 158.925,206.973 167.545,213.635 177.252 C 214.511 178.529,214.547 178.450,212.326 180.164 C 206.151 184.931,198.863 188.456,191.950 190.020 C 191.327 190.161,190.459 190.366,190.023 190.475 C 188.045 190.972,182.200 191.243,179.573 190.959 C 156.697 188.493,137.870 161.801,121.972 109.297 C 120.305 103.791,119.407 100.379,117.825 93.537 C 116.826 89.221,112.669 71.191,112.126 68.821 C 111.653 66.761,101.908 24.611,100.093 16.780 C 99.674 14.972,99.328 13.413,99.325 13.317 C 99.313 12.941,97.334 11.002,96.259 10.314 C 94.023 8.883,90.876 8.226,87.778 8.544 M357.570 26.553 C 362.367 27.350,363.540 27.781,364.139 28.970 C 365.274 31.225,366.006 34.087,366.027 36.361 C 366.044 38.161,366.020 38.188,364.072 38.530 C 362.553 38.797,360.313 39.815,358.701 40.973 C 357.580 41.777,356.389 44.174,355.307 47.803 C 355.058 48.637,354.767 49.524,354.661 49.773 C 352.933 53.834,352.730 54.003,349.206 54.304 C 348.271 54.384,346.538 54.608,345.355 54.801 C 344.133 55.001,342.714 55.094,342.067 55.017 C 341.442 54.942,338.149 54.835,334.751 54.778 C 327.634 54.660,328.031 54.762,328.183 53.089 C 328.349 51.265,328.768 47.942,329.016 46.485 C 329.312 44.747,330.071 39.291,330.608 35.034 C 331.103 31.118,331.898 27.063,332.264 26.587 C 332.554 26.210,355.319 26.179,357.570 26.553 M79.549 63.799 C 79.697 64.209,79.819 64.768,79.819 65.042 C 79.819 65.624,80.357 67.576,81.519 71.202 C 82.758 75.070,83.467 77.355,83.667 78.118 C 83.765 78.492,83.999 79.233,84.187 79.764 C 84.385 80.325,84.441 80.785,84.320 80.860 C 83.588 81.312,70.404 81.615,68.972 81.212 C 68.442 81.063,68.442 81.062,68.879 80.497 C 69.120 80.186,69.760 79.065,70.302 78.005 C 70.844 76.944,71.556 75.669,71.884 75.170 C 72.213 74.671,73.841 71.763,75.502 68.707 C 77.163 65.652,78.562 63.080,78.611 62.992 C 78.796 62.658,79.290 63.083,79.549 63.799 " stroke="none" fill="#fbfbfb" fill-rule="evenodd"></path></g></svg>