<?xml version="1.0" standalone="no"?>
<!DOCTYPE svg PUBLIC "-//W3C//DTD SVG 20010904//EN"
 "http://www.w3.org/TR/2001/REC-SVG-20010904/DTD/svg10.dtd">
<svg version="1.0" xmlns="http://www.w3.org/2000/svg"
 width="199.000000pt" height="156.000000pt" viewBox="0 0 199.000000 156.000000"
 preserveAspectRatio="xMidYMid meet">

<g transform="translate(0.000000,156.000000) scale(0.100000,-0.100000)"
fill="#90E4A3" stroke="none">
<path d="M993 1541 c-25 -40 -38 -148 -37 -306 1 -147 3 -165 27 -227 l26 -67
-34 -7 c-19 -3 -104 -1 -188 6 -85 7 -208 11 -274 8 -135 -5 -124 0 -267 -117
-89 -74 -174 -160 -195 -199 -22 -40 -19 -128 7 -192 13 -32 46 -82 80 -119
55 -61 60 -64 112 -68 45 -4 60 -1 82 16 35 28 68 98 68 146 0 34 -7 47 -52
92 -60 61 -63 55 54 143 52 39 89 60 107 60 15 0 76 -16 136 -35 149 -48 371
-95 482 -102 81 -5 98 -3 145 17 29 12 64 32 77 44 43 39 155 285 196 431 9
33 24 75 32 93 14 30 14 37 1 66 -56 117 -267 266 -448 315 -93 26 -122 26
-137 2z"/>
</g>

<g transform="translate(0.000000,156.000000) scale(0.100000,-0.100000)"
fill="#43724D" stroke="none">
<path d="M956 1499 c-42 -141 -44 -337 -6 -463 12 -37 20 -70 18 -72 -2 -1
-116 2 -254 8 -351 15 -328 21 -510 -149 -195 -182 -220 -234 -175 -364 58
-169 121 -229 238 -229 75 0 118 25 144 84 41 93 34 149 -27 216 l-34 38 81
60 c74 56 83 60 112 51 126 -38 467 -120 537 -130 73 -10 94 -9 150 5 135 35
189 90 264 266 55 130 110 306 102 326 -3 9 -13 14 -22 12 -10 -2 -31 -50 -63
-148 -49 -149 -104 -269 -149 -329 -39 -52 -121 -85 -212 -84 -88 1 -147 13
-437 89 l-214 56 -114 -86 c-63 -48 -115 -90 -115 -95 0 -6 19 -22 43 -38 23
-16 50 -45 61 -67 18 -37 18 -41 2 -92 -21 -66 -45 -84 -112 -84 -75 0 -110
28 -157 122 -48 98 -57 160 -29 214 12 23 78 94 155 167 106 98 144 128 177
137 32 9 114 9 328 0 209 -9 286 -9 291 -1 4 6 -3 42 -15 79 -48 143 -54 293
-18 455 17 72 14 97 -10 97 -10 0 -21 -19 -30 -51z"/>
</g>
</svg>
