<?xml version="1.0" standalone="no"?>
<!DOCTYPE svg PUBLIC "-//W3C//DTD SVG 20010904//EN"
 "http://www.w3.org/TR/2001/REC-SVG-20010904/DTD/svg10.dtd">
<svg version="1.0" xmlns="http://www.w3.org/2000/svg"
 width="596pt" height="313pt" viewBox="0 0 596 313"
 preserveAspectRatio="xMidYMid meet">

<g transform="translate(0.000000,313.000000) scale(0.100000,-0.100000)"
fill="#90E4A3" stroke="none">
<path d="M1552 3076 c-67 -32 -183 -126 -260 -212 l-59 -66 -99 79 c-119 96
-132 103 -182 103 -56 0 -85 -28 -118 -110 -15 -39 -32 -74 -38 -79 -6 -5 -56
-28 -111 -51 -409 -173 -592 -331 -652 -563 -21 -84 -13 -261 15 -315 30 -60
86 -84 201 -89 103 -5 518 12 564 23 24 6 27 3 27 -18 0 -37 -100 -165 -296
-377 -98 -107 -185 -207 -191 -223 -15 -36 -8 -130 17 -213 43 -143 117 -215
219 -215 147 1 327 78 564 241 l117 81 138 -12 c305 -26 518 -93 763 -242 92
-56 231 -112 329 -132 120 -25 212 -51 250 -71 19 -10 76 -54 125 -97 188
-167 305 -221 620 -288 55 -12 136 -30 180 -40 234 -55 410 -92 585 -121 l195
-33 345 1 c406 2 469 10 482 58 14 52 658 2329 662 2341 5 12 -127 94 -184
114 -19 7 -84 30 -145 52 -154 55 -408 124 -550 149 -153 27 -425 37 -533 20
-210 -34 -303 -58 -493 -129 -176 -66 -294 -121 -458 -215 -179 -102 -211
-124 -379 -265 -68 -56 -138 -110 -155 -119 -47 -24 -96 -19 -173 17 -61 30
-93 58 -284 251 -299 303 -388 376 -542 449 -52 25 -66 38 -120 116 -104 148
-178 207 -280 220 -33 4 -55 -1 -96 -20z"/>
</g>

<g transform="translate(0.000000,313.000000) scale(0.100000,-0.100000)"
fill="#FFFFFF" stroke="none">
<path d="M1542 2630 c-33 -8 -162 -89 -162 -102 0 -3 26 -23 57 -42 61 -38 99
-44 165 -26 41 12 88 63 88 97 0 23 -34 58 -73 72 -31 12 -29 12 -75 1z"/>
</g>

<g transform="translate(0,313) scale(0.1,-0.1)"
fill="#43724D" stroke="none">
<path d="M1580 3111 c-83 -26 -167 -85 -297 -205 -71 -66 -69 -66 -163 14
-109 93 -151 109 -215 81 -52 -23 -84 -67 -104 -144 l-16 -60 -101 -32 c-203
-64 -440 -215 -557 -354 -112 -134 -153 -322 -112 -515 16 -76 32 -99 87 -127
70 -36 132 -43 268 -31 69 7 198 14 288 16 l162 5 -40 -57 c-43 -62 -112 -141
-319 -367 l-134 -146 6 -87 c10 -170 70 -295 166 -344 132 -69 318 -11 631
198 l145 96 90 -6 c169 -11 359 -53 510 -113 50 -19 180 -82 290 -138 231
-120 290 -141 432 -160 124 -16 140 -25 274 -150 163 -153 334 -226 681 -291
46 -8 181 -40 300 -70 324 -81 498 -105 868 -119 247 -10 565 21 565 55 0 18
-27 19 -190 0 -152 -16 -597 -8 -773 14 -138 18 -320 52 -359 67 -49 18 -297
79 -387 95 -219 37 -417 100 -539 172 -32 18 -102 75 -156 126 -120 113 -164
136 -281 147 -121 11 -177 32 -449 169 -307 155 -490 214 -733 237 l-71 6 44
23 c56 29 187 73 359 119 159 43 277 96 341 153 103 92 155 275 115 407 -15
51 -40 54 -44 5 -12 -159 -59 -290 -126 -348 -54 -47 -138 -86 -261 -121 -266
-76 -329 -108 -672 -340 -245 -165 -437 -241 -541 -212 -99 28 -162 129 -186
300 l-7 43 31 -25 c64 -54 138 -48 278 22 340 171 695 491 823 743 52 102 37
127 -92 154 -123 26 -213 0 -389 -111 -133 -84 -159 -93 -310 -106 -129 -11
-142 -10 -287 15 -159 27 -264 33 -307 17 -36 -14 -46 4 -64 115 -32 194 17
346 156 484 42 42 105 95 138 118 101 67 264 148 360 178 91 28 134 55 134 84
0 27 29 78 57 100 44 34 72 26 159 -46 43 -37 89 -71 100 -76 l22 -10 -29 -55
c-28 -54 -37 -93 -21 -93 4 0 51 49 105 109 159 181 327 301 420 301 56 0 103
-29 187 -116 41 -42 93 -95 115 -118 23 -23 73 -58 112 -80 134 -73 244 -165
483 -406 271 -274 301 -295 405 -295 90 0 133 21 273 133 368 294 785 496
1172 567 278 50 629 31 920 -50 175 -49 430 -147 563 -216 55 -29 77 -31 77
-6 0 32 -362 186 -590 252 -362 104 -695 120 -1040 49 -373 -77 -769 -273
-1125 -559 -60 -48 -130 -97 -155 -108 -65 -30 -136 -27 -196 8 -27 16 -151
132 -284 265 -235 237 -349 334 -472 399 -89 48 -109 66 -173 156 -81 113
-150 181 -204 200 -56 19 -72 18 -141 -4z"/>
<path d="M1505 2641 c-22 -10 -60 -34 -83 -55 -24 -20 -48 -36 -53 -36 -19 0
-8 -27 24 -58 65 -63 147 -78 226 -40 55 26 39 34 -38 19 -61 -12 -103 -4
-148 28 -32 23 -29 34 22 70 102 73 153 75 210 9 28 -33 36 -38 41 -24 8 22
-19 62 -59 86 -40 25 -90 25 -142 1z"/>
<path d="M449 2446 c-56 -20 -96 -53 -125 -102 -22 -38 -25 -49 -16 -70 19
-41 56 -32 81 19 19 39 92 106 149 136 12 6 22 16 22 21 0 14 -68 12 -111 -4z"/>
</g>

</svg>
