<?xml version="1.0" standalone="no"?>
<!DOCTYPE svg PUBLIC "-//W3C//DTD SVG 20010904//EN"
 "http://www.w3.org/TR/2001/REC-SVG-20010904/DTD/svg10.dtd">
<svg version="1.0" xmlns="http://www.w3.org/2000/svg"
 width="199.000000pt" height="156.000000pt" viewBox="0 0 199.000000 156.000000"
 preserveAspectRatio="xMidYMid meet">

<g transform="translate(0.000000,156.000000) scale(0.100000,-0.100000)"
fill="#90E4A3" stroke="none">
<path d="M1336 1415 c-9 -13 -16 -35 -16 -48 0 -14 -8 -44 -17 -68 -32 -83
-12 -413 31 -511 13 -28 -27 -31 -213 -18 -215 15 -415 11 -453 -10 -45 -25
-208 -161 -272 -228 -71 -74 -95 -120 -96 -183 0 -92 63 -226 132 -281 33 -26
52 -33 100 -36 51 -4 63 -1 97 23 40 27 81 101 81 146 0 35 -48 112 -85 138
-34 23 -35 25 -19 43 10 10 53 45 97 78 96 73 107 74 261 24 193 -62 450 -114
566 -114 70 0 153 31 199 73 46 43 158 293 205 457 15 52 31 99 37 105 39 39
-46 167 -171 260 -80 59 -232 133 -317 154 -106 27 -127 27 -147 -4z"/>
</g>
<g transform="translate(0.000000,156.000000) scale(0.100000,-0.100000)"
fill="#43724D" stroke="none">
<path d="M1302 1408 c-5 -7 -18 -49 -28 -93 -28 -120 -27 -344 3 -444 13 -41
21 -76 19 -78 -2 -2 -123 1 -270 7 -269 12 -338 7 -393 -23 -11 -7 -88 -76
-170 -153 -133 -128 -150 -148 -172 -204 -25 -62 -25 -63 -8 -126 21 -82 70
-180 109 -221 45 -47 87 -63 161 -63 85 0 124 25 154 100 37 91 25 161 -38
226 l-31 32 86 65 86 65 128 -34 c399 -109 525 -132 620 -114 80 14 155 54
198 103 49 58 124 217 173 371 48 150 51 179 19 174 -18 -2 -26 -18 -49 -95
-15 -50 -44 -134 -65 -185 -81 -204 -124 -261 -223 -299 -96 -36 -186 -26
-526 61 l-290 73 -123 -92 c-135 -101 -137 -105 -66 -145 54 -30 81 -94 64
-155 -6 -24 -24 -57 -40 -73 -23 -23 -37 -28 -77 -28 -93 0 -158 62 -202 191
-43 129 -23 179 122 310 56 51 114 107 129 124 46 54 94 67 243 66 72 -1 213
-5 315 -10 226 -11 222 -13 187 86 -51 142 -58 291 -21 480 16 79 15 113 -4
113 -5 0 -14 -6 -20 -12z"/>
</g>
</svg>
