<?xml version="1.0" standalone="no"?>
<!DOCTYPE svg PUBLIC "-//W3C//DTD SVG 20010904//EN"
 "http://www.w3.org/TR/2001/REC-SVG-20010904/DTD/svg10.dtd">
<svg version="1.0" xmlns="http://www.w3.org/2000/svg"
 width="255pt" height="153pt" viewBox="579 267 255 153"
 preserveAspectRatio="xMidYMid meet">

<!-- Light grey highlights on desk equipment (top of monitor, keyboard keys,
     & mouse "clicky" part): -->

<g transform="translate(0,652) scale(0.1,-0.1)"
fill="#474747" stroke="none">
<path d="M2875 5504 c18 -81 63 -183 121 -270 35 -53 64 -100 64 -104 0 -8
103 -162 143 -214 22 -29 92 -101 217 -221 36 -35 97 -84 135 -110 39 -27 96
-67 127 -91 31 -23 69 -50 85 -59 15 -8 51 -29 78 -45 77 -46 252 -129 330
-157 140 -49 303 -91 380 -98 34 -3 86 -14 116 -24 71 -25 183 -45 217 -38 15
3 81 2 147 -3 66 -4 124 -5 128 -1 4 5 -500 329 -1120 721 -620 392 -1138 720
-1151 728 -23 15 -23 14 -17 -14z"/>
<path d="M5919 3731 c-44 -27 -109 -99 -109 -119 0 -14 39 -37 127 -76 88 -39
94 -38 135 35 11 21 36 45 54 55 19 10 34 22 34 25 0 13 -58 56 -102 77 -73
34 -90 34 -139 3z"/>
<path d="M6680 3445 c-63 -14 -205 -43 -315 -65 -236 -49 -237 -49 -233 -61 2
-5 293 -192 648 -417 l644 -408 348 71 c191 39 352 75 358 81 13 13 -1271 818
-1309 821 -14 1 -78 -9 -141 -22z"/>
</g>

<!-- Medium dark grey on desk equipment (body of monitor, keyboard base,
     & top part of mouse): -->

<g transform="translate(0,652) scale(0.1,-0.1)"
fill="#383838" stroke="none">
<path d="M2840 4621 c0 -822 1 -849 19 -854 11 -2 24 -21 31 -43 16 -47 127
-194 187 -248 95 -84 275 -203 321 -212 17 -3 56 1 88 11 57 16 59 16 74 -3
14 -17 70 -52 84 -52 3 0 17 22 32 50 l27 50 32 -24 c18 -14 44 -28 58 -31 14
-4 44 -24 66 -46 22 -21 61 -50 88 -64 26 -13 59 -36 72 -50 13 -14 29 -25 37
-25 18 0 18 -19 -2 -66 -16 -38 -16 -38 12 -61 36 -29 100 -60 137 -68 22 -4
34 -17 53 -58 13 -29 24 -64 24 -79 0 -35 50 -93 104 -120 23 -11 48 -26 56
-32 8 -7 40 -23 70 -35 30 -13 75 -35 100 -50 25 -16 63 -34 85 -41 22 -7 49
-18 60 -24 18 -11 154 -56 265 -88 25 -7 74 -13 110 -13 l65 0 3 853 c1 548
-1 852 -8 852 -5 0 -7 6 -4 14 4 11 -24 13 -148 15 -154 1 -289 13 -363 31
-22 5 -105 23 -184 40 -128 28 -236 62 -411 130 -30 12 -71 27 -90 34 -76 29
-219 107 -286 158 -39 29 -109 80 -155 113 -93 67 -193 164 -284 274 -33 41
-67 81 -76 90 -10 9 -60 80 -113 159 -98 145 -152 243 -176 320 -11 34 -18 42
-37 42 l-23 0 0 -849z"/>
<path d="M6125 3825 c-27 -8 -72 -23 -98 -35 -48 -22 -49 -22 -27 -37 12 -9
46 -25 74 -35 28 -11 60 -28 72 -39 20 -19 22 -19 129 16 60 19 114 35 121 35
41 0 0 70 -53 91 -40 15 -166 18 -218 4z"/>
<path d="M6745 3529 c-49 -10 -114 -23 -143 -28 -29 -6 -68 -14 -85 -20 -45
-13 -120 -29 -201 -41 -38 -6 -76 -15 -85 -19 -25 -14 -240 -53 -251 -46 -5 3
-19 1 -30 -5 -17 -9 -21 -19 -18 -53 3 -40 5 -42 103 -104 55 -35 109 -71 120
-81 11 -10 56 -38 100 -62 44 -23 91 -51 105 -62 14 -10 59 -40 100 -67 41
-26 100 -64 131 -84 31 -21 61 -37 67 -37 6 0 23 -10 39 -23 23 -20 95 -67
198 -130 98 -61 271 -173 315 -205 30 -22 87 -55 125 -75 76 -38 103 -38 216
-6 24 7 55 14 69 15 14 1 68 12 120 24 52 12 106 24 120 27 14 2 34 8 45 13
22 9 156 37 245 50 136 22 160 35 160 89 0 40 -14 61 -41 61 -9 0 -22 7 -29
15 -7 9 -15 13 -18 10 -3 -3 -11 4 -19 15 -8 11 -22 20 -31 21 -9 0 -44 20
-77 44 -33 24 -92 59 -132 79 -40 19 -102 55 -138 81 -37 25 -76 50 -89 55
-12 4 -35 19 -52 33 -16 13 -40 30 -54 37 -14 7 -43 28 -65 45 -22 18 -56 38
-76 44 -20 6 -45 21 -55 32 -11 12 -41 33 -69 46 -27 14 -68 38 -90 53 -22 15
-81 53 -131 83 -86 52 -214 135 -276 178 -15 11 -28 19 -30 18 -2 0 -43 -9
-93 -20z m264 -175 c85 -45 135 -76 159 -97 10 -9 24 -17 30 -17 6 0 23 -11
39 -24 29 -24 211 -136 222 -136 9 0 120 -74 157 -104 17 -13 44 -30 60 -37
16 -7 54 -29 84 -49 30 -20 89 -56 130 -80 41 -24 93 -58 115 -76 22 -17 53
-38 69 -45 49 -23 41 -35 -31 -48 -75 -14 -96 -18 -263 -55 -117 -26 -140 -32
-245 -60 -96 -26 -106 -23 -233 62 -63 42 -129 84 -146 93 -17 10 -88 55 -159
100 -70 46 -161 103 -202 127 -41 24 -75 47 -75 52 0 4 -19 15 -42 25 -24 9
-54 27 -68 39 -36 32 -139 100 -197 129 -84 43 -252 162 -242 171 2 2 31 10
64 16 86 17 126 27 160 38 17 6 57 16 90 22 154 29 337 69 342 74 3 3 31 -15
61 -40 31 -25 85 -61 121 -80z"/>
</g>

<!-- Dark grey on desk equipment (base of monitor & bottom part of mouse): -->

<g transform="translate(0,652) scale(0.1,-0.1)"
fill="#353535" stroke="none">
<path d="M6310 3714 c-88 -23 -170 -71 -227 -133 -92 -99 -76 -103 180 -40
127 31 184 80 172 149 -6 37 -9 40 -38 39 -18 0 -57 -7 -87 -15z"/>
<path d="M3692 3298 c-22 -28 -61 -118 -76 -174 -18 -69 -30 -185 -35 -326 -1
-34 -4 -38 -27 -38 -28 0 -245 -51 -451 -105 -72 -19 -142 -35 -155 -35 -104
-1 -87 -64 32 -125 19 -10 85 -50 146 -90 60 -40 119 -75 130 -79 11 -3 29
-14 40 -24 10 -9 42 -28 71 -41 29 -13 74 -44 100 -67 26 -24 53 -44 59 -44 7
0 35 -16 63 -35 28 -19 53 -35 57 -35 4 0 34 -19 68 -42 33 -24 84 -54 111
-67 28 -14 59 -33 70 -42 40 -35 70 -40 147 -22 40 8 85 22 100 30 15 7 65 20
110 29 46 8 110 23 143 34 33 10 85 24 115 30 30 6 66 16 80 21 14 5 44 11 67
13 52 6 63 12 63 35 0 24 -26 46 -82 71 -25 11 -51 27 -58 35 -7 8 -18 15 -25
15 -8 0 -34 15 -58 34 -25 19 -59 42 -77 51 -17 9 -61 35 -98 59 -37 24 -92
56 -122 71 -30 15 -99 57 -154 94 l-98 66 6 60 c12 121 40 232 79 322 l39 92
-33 28 c-18 15 -50 36 -71 45 -21 9 -38 22 -38 27 0 6 -29 26 -64 46 -35 20
-70 43 -77 51 -13 16 -62 44 -77 44 -5 0 -14 -6 -20 -12z"/>
</g>

<!-- Dark grey outline on all the desk equipment: -->

<g transform="translate(0,652) scale(0.1,-0.1)"
fill="#282828" stroke="none">
<path d="M2820 4686 l0 -894 47 -93 c40 -81 61 -108 152 -199 63 -63 152 -137
221 -185 63 -44 118 -84 122 -89 4 -6 36 -2 83 11 l77 22 49 -31 c27 -16 49
-33 49 -37 0 -4 -9 -42 -19 -84 -11 -41 -25 -131 -31 -199 -6 -67 -12 -123
-13 -124 -4 -3 -594 -143 -637 -151 -44 -8 -45 -9 -48 -50 -3 -35 1 -44 25
-61 15 -10 263 -164 551 -341 395 -244 526 -320 536 -312 11 10 666 174 727
183 19 2 25 11 30 41 6 35 4 39 -25 54 -32 17 -716 432 -728 442 -14 13 36
319 56 339 2 1 42 -21 89 -50 90 -55 95 -62 134 -172 17 -47 23 -52 133 -118
148 -88 312 -169 421 -206 96 -34 291 -79 359 -84 l45 -3 3 892 2 892 -22 15
c-13 7 -548 345 -1190 750 -642 405 -1174 736 -1183 736 -13 0 -15 -96 -15
-894z m1200 99 c591 -373 1080 -682 1085 -687 19 -17 -325 15 -500 48 -651
119 -1172 455 -1509 970 -59 91 -159 279 -186 349 -10 27 -10 27 12 13 13 -8
507 -320 1098 -693z m-976 320 c170 -263 392 -488 651 -658 134 -87 371 -200
540 -256 245 -81 511 -128 838 -147 l107 -6 0 -845 0 -845 -57 7 c-84 10 -286
68 -383 110 -92 39 -209 101 -334 176 l-79 48 -42 104 c-172 428 -420 660
-659 616 -65 -11 -148 -50 -211 -97 l-39 -30 -61 41 c-229 155 -341 267 -416
417 l-29 59 0 813 1 813 67 -130 c37 -71 85 -157 106 -190z m639 -1742 c-7 -2
-19 -2 -25 0 -7 3 -2 5 12 5 14 0 19 -2 13 -5z m-58 -10 c-11 -3 -42 -14 -70
-25 -27 -11 -45 -15 -40 -9 14 14 85 40 110 39 l20 0 -20 -5z m234 -55 c46
-12 131 -86 180 -157 l24 -33 -44 28 c-80 53 -264 176 -269 181 -6 6 48 -3
109 -19z m-189 8 c0 -1 -5 -17 -11 -34 -11 -31 -11 -31 -39 -17 -43 22 -44 33
-8 44 36 10 58 13 58 7z m222 -143 l157 -104 -30 -71 c-61 -143 -89 -318 -89
-561 0 -65 -4 -117 -8 -115 -5 2 -77 46 -160 98 l-152 95 0 170 c0 257 19 393
76 537 17 41 31 65 38 61 6 -3 82 -53 168 -110z m254 -188 c18 -33 32 -61 30
-63 -5 -5 -106 60 -106 69 0 19 24 59 34 56 5 -2 24 -30 42 -62z m-584 -366
l3 -132 203 -128 c112 -71 205 -129 208 -129 2 0 4 72 4 160 0 88 2 160 4 160
4 0 349 -209 574 -348 40 -24 71 -46 69 -49 -8 -7 -621 -153 -645 -153 -13 0
-165 86 -340 193 -174 107 -397 242 -495 302 -98 59 -176 109 -174 111 3 4
564 142 579 143 4 1 9 -58 10 -130z m-480 -126 c162 -100 431 -265 578 -356
36 -22 88 -54 115 -71 28 -18 80 -50 117 -71 42 -25 68 -47 68 -57 0 -14 -22
-4 -97 43 -54 33 -293 180 -530 327 -238 146 -433 272 -433 279 0 7 2 13 4 13
2 0 82 -48 178 -107z m1628 -383 c0 -5 -2 -10 -5 -10 -3 0 -164 -38 -357 -85
-193 -47 -352 -85 -354 -85 -2 0 -4 6 -4 13 0 7 75 30 208 62 114 27 268 64
342 81 148 36 170 39 170 24z"/>
<path d="M6110 3835 c-115 -32 -258 -123 -303 -195 -19 -30 -19 -31 -1 -52 29
-32 192 -108 232 -108 55 0 279 48 326 71 71 33 91 61 91 129 0 70 -20 103
-85 139 -56 31 -177 38 -260 16z m236 -45 c62 -31 63 -46 1 -60 -29 -7 -80
-23 -114 -36 l-61 -25 -44 29 c-23 16 -60 35 -81 43 -32 11 -35 15 -20 23 85
47 247 60 319 26z m-312 -63 l29 -13 -24 -15 c-13 -9 -37 -19 -52 -23 -15 -3
-32 -17 -37 -29 -5 -12 -19 -34 -32 -49 l-23 -28 -33 21 -33 22 28 30 c39 41
115 97 133 96 8 0 28 -5 44 -12z m384 -54 c4 -44 -31 -76 -111 -102 -74 -24
-236 -55 -245 -47 -11 12 100 108 152 132 61 28 153 54 181 51 15 -1 21 -11
23 -34z m-294 6 l26 -21 -54 -51 c-29 -29 -58 -60 -63 -70 -8 -16 -12 -16 -56
-1 -26 9 -50 20 -53 26 -7 11 24 48 42 48 7 0 23 12 36 28 27 32 67 62 84 62
6 0 23 -9 38 -21z"/>
<path d="M6799 3566 c-2 -2 -202 -46 -444 -97 -242 -51 -442 -97 -445 -101 -3
-4 -5 -29 -4 -55 3 -64 3 -63 14 -63 9 0 114 -66 1034 -647 428 -270 451 -283
480 -274 17 6 218 51 446 101 228 49 424 94 435 99 17 7 21 18 20 57 l0 49
-670 422 c-368 233 -704 443 -745 468 -65 40 -107 54 -121 41z m738 -486 c384
-242 699 -443 700 -447 4 -12 -807 -182 -827 -175 -26 10 -1399 876 -1400 883
0 5 778 176 812 178 9 1 331 -197 715 -439z m-842 -232 c374 -236 684 -435
690 -443 5 -8 7 -17 3 -20 -5 -5 -344 205 -1283 799 -98 62 -161 109 -163 120
-4 17 -1 17 34 -5 22 -13 345 -216 719 -451z m1603 -283 c-4 -4 -632 -145
-845 -190 -33 -7 -49 11 -18 20 8 3 23 8 33 12 9 3 197 45 417 93 346 75 438
90 413 65z"/>
<path d="M6473 3407 c-274 -57 -343 -74 -343 -87 1 -9 253 -174 647 -423 l646
-408 356 73 c269 55 356 77 358 88 2 10 -192 136 -584 380 -322 201 -615 384
-651 408 -36 23 -70 41 -76 41 -6 -1 -165 -33 -353 -72z m421 1 l70 -43 -50
-8 c-48 -7 -55 -6 -113 29 -34 20 -59 39 -57 42 4 3 21 8 75 21 3 1 36 -18 75
-41z m-130 -32 l69 -44 -64 -7 c-62 -7 -67 -5 -127 30 -34 21 -61 39 -59 41 4
5 78 22 97 23 8 0 46 -19 84 -43z m-160 -30 c62 -39 66 -44 45 -49 -42 -12
-76 -7 -100 12 -13 10 -39 26 -56 35 -51 26 -45 34 32 44 6 1 41 -18 79 -42z
m-160 -5 l28 -19 -51 -7 c-41 -6 -57 -3 -79 11 l-27 18 30 7 c51 11 69 10 99
-10z m590 -20 l28 -19 -50 -7 c-40 -5 -58 -3 -82 12 l-32 18 34 6 c57 11 72 9
102 -10z m-654 -53 l95 -62 -50 -9 c-55 -9 -52 -10 -180 72 -65 42 -68 45 -45
52 59 17 84 9 180 -53z m525 21 c20 -12 35 -23 33 -24 -2 -2 -27 -8 -57 -13
-47 -8 -58 -7 -87 10 -54 32 -49 36 58 46 9 1 33 -8 53 -19z m-366 -8 l24 -19
-50 -7 c-41 -5 -57 -3 -79 12 l-28 18 39 6 c64 10 69 9 94 -10z m215 -26 c38
-23 38 -24 15 -29 -52 -12 -67 -10 -102 9 -20 11 -37 23 -37 27 0 4 17 9 38
11 20 2 39 4 42 5 3 1 23 -9 44 -23z m376 6 l24 -19 -46 -7 c-35 -5 -53 -3
-79 11 l-34 19 40 6 c64 10 69 9 95 -10z m-487 -45 l38 -23 -32 -7 c-52 -10
-72 -7 -109 16 l-35 22 35 7 c57 10 63 10 103 -15z m380 0 l38 -23 -60 -10
c-54 -8 -63 -7 -97 13 -36 22 -37 23 -13 28 24 5 65 12 84 14 6 1 27 -9 48
-22z m411 -146 c247 -154 245 -152 170 -162 -12 -2 -116 56 -265 147 l-244
150 40 6 c22 3 45 7 50 7 6 1 117 -66 249 -148z m-560 111 c25 -17 26 -20 10
-25 -40 -12 -80 -9 -106 8 -15 10 -25 22 -22 27 10 16 88 10 118 -10z m-317
-23 l38 -23 -30 -6 c-56 -12 -84 -9 -122 14 l-38 22 35 6 c62 11 78 9 117 -13z
m198 -12 l39 -24 -48 -7 c-39 -6 -57 -4 -83 10 -43 23 -42 33 5 38 20 2 39 4
42 5 3 1 23 -9 45 -22z m381 0 c34 -23 34 -24 12 -30 -13 -3 -33 -6 -45 -6
-13 0 -23 -5 -23 -11 0 -12 -77 32 -79 46 -1 8 32 18 87 24 7 0 29 -10 48 -23z
m-151 -32 c33 -22 31 -34 -4 -34 -16 0 -31 -4 -33 -9 -1 -5 -22 2 -45 16 -24
14 -40 29 -37 34 9 15 93 10 119 -7z m-316 -26 l36 -23 -30 -6 c-57 -12 -87
-9 -118 14 l-32 22 40 6 c22 3 46 7 54 8 7 0 30 -9 50 -21z m195 -12 c34 -20
37 -24 20 -30 -41 -12 -81 -9 -112 9 -42 25 -40 33 6 38 20 2 39 4 42 5 3 1
23 -9 44 -22z m391 -3 l40 -28 -58 -8 c-51 -7 -62 -5 -93 14 -41 25 -38 30 19
40 23 3 44 7 47 8 3 0 23 -11 45 -26z m-146 -35 l36 -23 -51 -9 c-46 -8 -55
-6 -89 17 -31 21 -34 26 -18 30 44 11 88 6 122 -15z m-332 -19 c19 -12 32 -23
30 -25 -2 -2 -25 -8 -50 -13 -41 -7 -50 -5 -84 18 l-38 26 40 6 c22 3 46 7 54
8 7 0 29 -9 48 -20z m213 -21 l35 -22 -48 -8 c-42 -8 -53 -5 -88 16 -45 26
-39 34 26 35 25 1 53 -7 75 -21z m389 0 l36 -23 -60 -9 c-54 -7 -64 -6 -100
15 l-40 24 35 6 c66 12 93 9 129 -13z m-153 -32 l35 -23 -32 -7 c-52 -10 -72
-7 -109 16 l-35 22 35 7 c60 11 70 10 106 -15z m-347 -10 c15 -8 33 -21 39
-29 10 -12 4 -15 -40 -20 -42 -5 -58 -3 -85 15 -39 23 -34 35 17 41 19 2 36 5
38 5 2 1 15 -4 31 -12z m227 -30 l36 -24 -51 -7 c-43 -6 -56 -3 -88 16 l-38
24 30 6 c55 12 76 9 111 -15z m384 2 l35 -22 -40 -7 c-63 -12 -78 -10 -115 13
l-35 22 40 7 c69 11 79 10 115 -13z m-152 -30 c36 -22 36 -22 12 -29 -44 -12
-81 -9 -111 8 -39 23 -37 31 9 36 20 2 41 4 46 5 5 1 25 -8 44 -20z m-319 -30
l36 -23 -57 -9 c-51 -7 -61 -6 -95 15 l-38 24 30 6 c57 12 88 9 124 -13z m734
3 c24 -15 26 -19 12 -25 -31 -11 -80 -6 -108 12 -15 10 -24 22 -20 25 13 14
89 6 116 -12z m-536 -13 l38 -23 -52 -9 c-46 -8 -56 -6 -90 15 l-38 24 40 6
c22 3 45 7 52 8 6 0 29 -9 50 -21z m390 0 l38 -23 -30 -6 c-58 -13 -94 -9
-132 14 l-38 22 40 6 c71 11 83 9 122 -13z m-152 -32 l40 -24 -40 -7 c-22 -4
-44 -8 -50 -10 -12 -3 -85 36 -85 46 0 4 17 10 38 12 20 2 42 4 47 5 6 1 28
-9 50 -22z m-326 -28 l36 -23 -56 -8 c-48 -8 -60 -6 -95 15 l-39 23 40 6 c69
11 77 10 114 -13z m747 -4 c48 -28 48 -40 -1 -45 -32 -3 -125 43 -125 61 0 21
82 10 126 -16z m-548 -6 c31 -19 33 -22 16 -29 -36 -14 -83 -9 -121 14 l-38
22 40 6 c22 3 46 7 54 8 7 0 30 -9 49 -21z m392 0 c22 -13 40 -26 40 -29 0 -4
-24 -10 -54 -13 -44 -6 -59 -3 -90 14 -46 28 -46 38 2 43 20 2 43 4 50 5 7 1
31 -8 52 -20z m-141 -37 l44 -29 -56 -7 c-49 -6 -61 -4 -98 18 -46 28 -46 28
31 40 14 3 27 5 30 6 3 0 25 -12 49 -28z m-335 -25 l38 -23 -38 -6 c-63 -11
-81 -8 -121 16 l-38 22 40 6 c69 11 79 9 119 -15z m204 -13 l47 -28 -52 -9
c-45 -7 -56 -6 -87 14 -46 28 -45 38 2 43 20 2 38 4 40 5 2 1 24 -10 50 -25z
m443 -30 c82 -50 84 -56 14 -67 -36 -6 -48 -2 -125 46 l-85 53 35 6 c67 12 82
9 161 -38z m146 10 l58 -37 -37 -9 c-34 -8 -45 -5 -102 29 -36 21 -63 41 -60
46 3 4 23 8 44 8 29 0 56 -10 97 -37z m-294 -42 c82 -51 82 -51 9 -66 -28 -6
-45 0 -113 42 -43 26 -79 51 -79 55 0 6 18 9 90 16 8 1 50 -20 93 -47z m-384
2 l46 -28 -57 -8 c-51 -8 -60 -7 -99 16 -45 27 -43 32 16 40 17 2 34 5 39 6 5
0 30 -11 55 -26z m245 -37 c53 -34 64 -45 50 -49 -70 -19 -74 -18 -152 30
l-77 48 40 6 c22 3 47 7 55 7 8 1 46 -18 84 -42z m-117 -43 c49 -28 46 -35
-20 -47 -33 -6 -46 -2 -90 26 l-52 33 40 6 c69 11 75 10 122 -18z"/>
</g>
</svg>